%TF.GenerationSoftware,KiCad,Pcbnew,9.0.4-1.fc42*%
%TF.CreationDate,2025-09-05T17:11:51+08:00*%
%TF.ProjectId,STICKLEBACK,53544943-4b4c-4454-9241-434b2e6b6963,rev?*%
%TF.SameCoordinates,Original*%
%TF.FileFunction,Copper,L2,Bot*%
%TF.FilePolarity,Positive*%
%FSLAX46Y46*%
G04 Gerber Fmt 4.6, Leading zero omitted, Abs format (unit mm)*
G04 Created by KiCad (PCBNEW 9.0.4-1.fc42) date 2025-09-05 17:11:51*
%MOMM*%
%LPD*%
G01*
G04 APERTURE LIST*
G04 Aperture macros list*
%AMRoundRect*
0 Rectangle with rounded corners*
0 $1 Rounding radius*
0 $2 $3 $4 $5 $6 $7 $8 $9 X,Y pos of 4 corners*
0 Add a 4 corners polygon primitive as box body*
4,1,4,$2,$3,$4,$5,$6,$7,$8,$9,$2,$3,0*
0 Add four circle primitives for the rounded corners*
1,1,$1+$1,$2,$3*
1,1,$1+$1,$4,$5*
1,1,$1+$1,$6,$7*
1,1,$1+$1,$8,$9*
0 Add four rect primitives between the rounded corners*
20,1,$1+$1,$2,$3,$4,$5,0*
20,1,$1+$1,$4,$5,$6,$7,0*
20,1,$1+$1,$6,$7,$8,$9,0*
20,1,$1+$1,$8,$9,$2,$3,0*%
G04 Aperture macros list end*
%TA.AperFunction,ConnectorPad*%
%ADD10RoundRect,0.225000X0.525000X-4.275000X0.525000X4.275000X-0.525000X4.275000X-0.525000X-4.275000X0*%
%TD*%
%TA.AperFunction,ComponentPad*%
%ADD11C,1.600000*%
%TD*%
%TA.AperFunction,ComponentPad*%
%ADD12RoundRect,0.250000X0.550000X-0.550000X0.550000X0.550000X-0.550000X0.550000X-0.550000X-0.550000X0*%
%TD*%
%TA.AperFunction,ComponentPad*%
%ADD13O,2.200000X1.200000*%
%TD*%
%TA.AperFunction,ComponentPad*%
%ADD14O,2.300000X1.600000*%
%TD*%
%TA.AperFunction,ComponentPad*%
%ADD15O,1.200000X2.200000*%
%TD*%
%TA.AperFunction,ComponentPad*%
%ADD16O,2.500000X1.600000*%
%TD*%
%TA.AperFunction,ComponentPad*%
%ADD17C,4.000000*%
%TD*%
%TA.AperFunction,ComponentPad*%
%ADD18R,1.600000X1.600000*%
%TD*%
%TA.AperFunction,ComponentPad*%
%ADD19R,1.800000X1.800000*%
%TD*%
%TA.AperFunction,ComponentPad*%
%ADD20C,1.800000*%
%TD*%
%TA.AperFunction,ViaPad*%
%ADD21C,0.600000*%
%TD*%
%TA.AperFunction,Conductor*%
%ADD22C,0.200000*%
%TD*%
G04 APERTURE END LIST*
D10*
X158750000Y-134620000D03*
X156210000Y-134620000D03*
X153670000Y-134620000D03*
X151130000Y-134620000D03*
X148590000Y-134620000D03*
X146050000Y-134620000D03*
X143510000Y-134620000D03*
X140970000Y-134620000D03*
X138430000Y-134620000D03*
X135890000Y-134620000D03*
X133350000Y-134620000D03*
X130810000Y-134620000D03*
X128270000Y-134620000D03*
X125730000Y-134620000D03*
X123190000Y-134620000D03*
X120650000Y-134620000D03*
X118110000Y-134620000D03*
X115570000Y-134620000D03*
X113030000Y-134620000D03*
X110490000Y-134620000D03*
X107950000Y-134620000D03*
X105410000Y-134620000D03*
X102870000Y-134620000D03*
X100330000Y-134620000D03*
X97790000Y-134620000D03*
X158750000Y-45720000D03*
X156210000Y-45720000D03*
X153670000Y-45720000D03*
X151130000Y-45720000D03*
X148590000Y-45720000D03*
X146050000Y-45720000D03*
X143510000Y-45720000D03*
X140970000Y-45720000D03*
X138430000Y-45720000D03*
X135890000Y-45720000D03*
X133350000Y-45720000D03*
X130810000Y-45720000D03*
X128270000Y-45720000D03*
X125730000Y-45720000D03*
X120650000Y-45720000D03*
X118110000Y-45720000D03*
X115570000Y-45720000D03*
X113030000Y-45720000D03*
X110490000Y-45720000D03*
X107950000Y-45720000D03*
X105410000Y-45720000D03*
X102870000Y-45720000D03*
X100330000Y-45720000D03*
X97790000Y-45720000D03*
D11*
X139700000Y-114300000D03*
X149860000Y-114300000D03*
X139700000Y-86360000D03*
X149860000Y-86360000D03*
D12*
X99060000Y-78740000D03*
D11*
X101600000Y-78740000D03*
X104140000Y-78740000D03*
X106680000Y-78740000D03*
X109220000Y-78740000D03*
X111760000Y-78740000D03*
X114300000Y-78740000D03*
X116840000Y-78740000D03*
X116840000Y-71120000D03*
X114300000Y-71120000D03*
X111760000Y-71120000D03*
X109220000Y-71120000D03*
X106680000Y-71120000D03*
X104140000Y-71120000D03*
X101600000Y-71120000D03*
X99060000Y-71120000D03*
D13*
X88259500Y-71280000D03*
D14*
X88259500Y-73780000D03*
D15*
X83259500Y-76280000D03*
D13*
X88259500Y-81280000D03*
D16*
X88259500Y-78780000D03*
D11*
X139700000Y-60960000D03*
X149860000Y-60960000D03*
X139700000Y-73660000D03*
X149860000Y-73660000D03*
D12*
X99060000Y-96520000D03*
D11*
X101600000Y-96520000D03*
X104140000Y-96520000D03*
X106680000Y-96520000D03*
X109220000Y-96520000D03*
X111760000Y-96520000D03*
X114300000Y-96520000D03*
X116840000Y-96520000D03*
X116840000Y-88900000D03*
X114300000Y-88900000D03*
X111760000Y-88900000D03*
X109220000Y-88900000D03*
X106680000Y-88900000D03*
X104140000Y-88900000D03*
X101600000Y-88900000D03*
X99060000Y-88900000D03*
D12*
X86465622Y-102642990D03*
D11*
X86465622Y-100142990D03*
X121920000Y-60960000D03*
X111760000Y-60960000D03*
X139700000Y-99060000D03*
X149860000Y-99060000D03*
D17*
X161672500Y-96320000D03*
X161672500Y-71320000D03*
D18*
X160252500Y-89360000D03*
D11*
X160252500Y-86590000D03*
X160252500Y-83820000D03*
X160252500Y-81050000D03*
X160252500Y-78280000D03*
X163092500Y-87975000D03*
X163092500Y-85205000D03*
X163092500Y-82435000D03*
X163092500Y-79665000D03*
D19*
X101600000Y-60960000D03*
D20*
X104140000Y-60960000D03*
D12*
X101600000Y-114300000D03*
D11*
X104140000Y-114300000D03*
X106680000Y-114300000D03*
X109220000Y-114300000D03*
X111760000Y-114300000D03*
X114300000Y-114300000D03*
X116840000Y-114300000D03*
X116840000Y-106680000D03*
X114300000Y-106680000D03*
X111760000Y-106680000D03*
X109220000Y-106680000D03*
X106680000Y-106680000D03*
X104140000Y-106680000D03*
X101600000Y-106680000D03*
D21*
X96815500Y-78843600D03*
X96723400Y-110456900D03*
X100753500Y-110573100D03*
X93980000Y-127000000D03*
X149868300Y-51908700D03*
X97617100Y-51908700D03*
X149449000Y-59581200D03*
X149868300Y-128685000D03*
X129317200Y-51685900D03*
X106672500Y-93410800D03*
X129424000Y-128978400D03*
X121751600Y-93410800D03*
X98778500Y-108661300D03*
X97378900Y-53727200D03*
X96272000Y-108377500D03*
X98768200Y-128897100D03*
X137681100Y-54512100D03*
X137687700Y-128686600D03*
X102384700Y-125535600D03*
X94697700Y-53340000D03*
X100537400Y-109318100D03*
X96593800Y-109277000D03*
X120030000Y-54977500D03*
X123011900Y-128307500D03*
X119925000Y-90424900D03*
X159023000Y-51908700D03*
X161843900Y-127000000D03*
X144698600Y-51908700D03*
X143138900Y-128686600D03*
X106375300Y-111371200D03*
X109035300Y-53574500D03*
X109220000Y-127000000D03*
X97356900Y-111372800D03*
X98271671Y-55439000D03*
X107611200Y-125502100D03*
X118052900Y-117356200D03*
X97526125Y-57715000D03*
X97757800Y-112169300D03*
X149860000Y-119380000D03*
X148870380Y-125907977D03*
X127000000Y-76200000D03*
X100719217Y-68384914D03*
X99792000Y-127173100D03*
X124460000Y-71120000D03*
X123301313Y-57611841D03*
X101245594Y-51984014D03*
X124460000Y-78740000D03*
X151012571Y-70560840D03*
X129540000Y-68580000D03*
X101216576Y-127319519D03*
X127000000Y-66040000D03*
X132080000Y-63500000D03*
X116840000Y-91440000D03*
X129540000Y-78740000D03*
X129540000Y-76200000D03*
X126268884Y-107236230D03*
X126600400Y-85524300D03*
X153213200Y-128685000D03*
X153147000Y-51908700D03*
X147367000Y-105386200D03*
X147428300Y-51908700D03*
X147630100Y-128686600D03*
X156300600Y-128685000D03*
X156005100Y-51908700D03*
X129730500Y-99507500D03*
X105743100Y-54871600D03*
X100479900Y-125592200D03*
X106041300Y-61527500D03*
X103455900Y-63491200D03*
X130393000Y-128224400D03*
X130063600Y-54513700D03*
X93836100Y-78453700D03*
X101600000Y-72547400D03*
X97208500Y-128685000D03*
X106672500Y-51638800D03*
X106672500Y-69150000D03*
X123891700Y-128686600D03*
X121445300Y-54210700D03*
X121445300Y-100591600D03*
X112308300Y-116142000D03*
X95680700Y-53974600D03*
X110592800Y-55791600D03*
X95721100Y-107497000D03*
X146394600Y-80648100D03*
X132804100Y-80784400D03*
X136325000Y-51908700D03*
X146333500Y-121429300D03*
X118309000Y-106316200D03*
X122802900Y-106184300D03*
X117731810Y-55708342D03*
X121591000Y-128685000D03*
X115570000Y-108241000D03*
X107379900Y-58409300D03*
X96633000Y-126333700D03*
X93863650Y-66156350D03*
X107942500Y-51553200D03*
X120971100Y-96385700D03*
X117239000Y-116524000D03*
X148462100Y-81446200D03*
X150148900Y-96314700D03*
X152369600Y-84023700D03*
X148117500Y-90423700D03*
X116190700Y-80648500D03*
D22*
X102615500Y-68547450D02*
X100499000Y-70663950D01*
X97195500Y-109027800D02*
X96915500Y-108747800D01*
X102939000Y-61457471D02*
X102801000Y-61595471D01*
X100502675Y-71579725D02*
X99060000Y-73022400D01*
X96915500Y-78943600D02*
X96815500Y-78843600D01*
X99060000Y-73022400D02*
X99060000Y-78740000D01*
X96915500Y-108747800D02*
X96915500Y-78943600D01*
X97195500Y-109984800D02*
X97195500Y-109027800D01*
X102986400Y-112806000D02*
X100753500Y-110573100D01*
X102939000Y-45789000D02*
X102939000Y-61457471D01*
X102801000Y-61595471D02*
X102801000Y-63579000D01*
X102870000Y-134620000D02*
X102986400Y-134503600D01*
X96723400Y-110456900D02*
X97195500Y-109984800D01*
X100499000Y-70663950D02*
X100499000Y-71576050D01*
X102801000Y-63579000D02*
X102615500Y-63764500D01*
X102870000Y-45720000D02*
X102939000Y-45789000D01*
X102986400Y-134503600D02*
X102986400Y-112806000D01*
X102615500Y-63764500D02*
X102615500Y-68547450D01*
X100499000Y-71576050D02*
X100502675Y-71579725D01*
X109220000Y-78740000D02*
X110379300Y-79899300D01*
X110331200Y-56380800D02*
X110331200Y-77628800D01*
X110331200Y-77628800D02*
X109220000Y-78740000D01*
X107950000Y-130794204D02*
X107950000Y-134620000D01*
X107950000Y-50692000D02*
X109991100Y-52733100D01*
X107950000Y-45720000D02*
X107950000Y-50692000D01*
X109991100Y-56040700D02*
X110331200Y-56380800D01*
X109991100Y-52733100D02*
X109991100Y-56040700D01*
X110379300Y-79899300D02*
X110379300Y-128391700D01*
X110322342Y-128421862D02*
X107950000Y-130794204D01*
X139700000Y-73660000D02*
X139700000Y-60960000D01*
X148590000Y-45720000D02*
X148590000Y-51049700D01*
X149449000Y-51908700D02*
X149449000Y-59581200D01*
X97790000Y-50800000D02*
X97617100Y-50972900D01*
X93980000Y-127000000D02*
X97790000Y-130810000D01*
X139700000Y-114300000D02*
X139700000Y-99060000D01*
X97790000Y-45720000D02*
X97790000Y-50800000D01*
X98176800Y-108412200D02*
X98176800Y-108910400D01*
X99060000Y-71120000D02*
X99060000Y-53351600D01*
X98176800Y-108910400D02*
X98359500Y-109093100D01*
X97956800Y-104727800D02*
X99909000Y-106680000D01*
X97790000Y-129024500D02*
X97790000Y-134620000D01*
X139700000Y-99060000D02*
X139700000Y-86360000D01*
X98359500Y-128455000D02*
X97790000Y-129024500D01*
X97956800Y-88900000D02*
X99060000Y-88900000D01*
X97617100Y-50972900D02*
X97617100Y-51908700D01*
X139700000Y-86360000D02*
X139700000Y-73660000D01*
X149868300Y-51908700D02*
X149449000Y-51908700D01*
X97790000Y-130810000D02*
X97790000Y-134620000D01*
X97956800Y-88900000D02*
X97956800Y-104727800D01*
X97956800Y-72223200D02*
X97956800Y-88900000D01*
X101600000Y-106680000D02*
X99909000Y-106680000D01*
X99060000Y-71120000D02*
X97956800Y-72223200D01*
X99909000Y-106680000D02*
X98176800Y-108412200D01*
X98359500Y-109093100D02*
X98359500Y-128455000D01*
X99060000Y-53351600D02*
X97617100Y-51908700D01*
X148590000Y-51049700D02*
X149449000Y-51908700D01*
X148590000Y-129963300D02*
X148590000Y-134620000D01*
X149868300Y-128685000D02*
X148590000Y-129963300D01*
X136750500Y-126285100D02*
X136750500Y-88041300D01*
X136926000Y-52157643D02*
X136926000Y-51659757D01*
X136926000Y-51659757D02*
X136573943Y-51307700D01*
X136076057Y-51307700D02*
X135890000Y-51493757D01*
X135890000Y-127145600D02*
X136750500Y-126285100D01*
X135890000Y-78265600D02*
X136726000Y-77429600D01*
X136726000Y-52357643D02*
X136926000Y-52157643D01*
X135890000Y-134620000D02*
X135890000Y-127145600D01*
X136750500Y-88041300D02*
X135890000Y-87180800D01*
X135890000Y-51493757D02*
X135890000Y-45720000D01*
X136573943Y-51307700D02*
X136076057Y-51307700D01*
X135890000Y-87180800D02*
X135890000Y-78265600D01*
X136726000Y-77429600D02*
X136726000Y-52357643D01*
X106680000Y-93403300D02*
X106680000Y-88900000D01*
X121751600Y-95394400D02*
X121751600Y-93410800D01*
X129317200Y-56700600D02*
X121751600Y-64266200D01*
X129424000Y-103066800D02*
X121751600Y-95394400D01*
X106672500Y-93410800D02*
X106680000Y-93403300D01*
X121751600Y-64266200D02*
X121751600Y-93410800D01*
X129317200Y-51685900D02*
X129317200Y-56700600D01*
X129424000Y-128978400D02*
X129424000Y-103066800D01*
X96322800Y-107247800D02*
X96213800Y-107138800D01*
X96213800Y-54892300D02*
X97378900Y-53727200D01*
X98778500Y-128886800D02*
X98768200Y-128897100D01*
X96272000Y-108377500D02*
X96322800Y-108326700D01*
X96213800Y-107138800D02*
X96213800Y-54892300D01*
X98778500Y-108661300D02*
X98778500Y-128886800D01*
X96322800Y-108326700D02*
X96322800Y-107247800D01*
X137687700Y-128686600D02*
X137687700Y-54518700D01*
X137687700Y-54518700D02*
X137681100Y-54512100D01*
X95228300Y-107139000D02*
X95119400Y-107247900D01*
X102384700Y-125535600D02*
X100148400Y-123299300D01*
X96293400Y-109277000D02*
X96593800Y-109277000D01*
X95119400Y-107247900D02*
X95119400Y-108103000D01*
X94697700Y-54036104D02*
X95228300Y-54566704D01*
X95228300Y-54566704D02*
X95228300Y-107139000D01*
X94697700Y-53340000D02*
X94697700Y-54036104D01*
X95119400Y-108103000D02*
X96293400Y-109277000D01*
X100148400Y-109707100D02*
X100537400Y-109318100D01*
X100148400Y-123299300D02*
X100148400Y-109707100D01*
X123011900Y-128307500D02*
X123404600Y-127914800D01*
X123404600Y-127914800D02*
X123404600Y-104927800D01*
X123404600Y-104927800D02*
X119925000Y-101448200D01*
X120030000Y-54977500D02*
X119925000Y-55082500D01*
X119925000Y-101448200D02*
X119925000Y-90424900D01*
X119925000Y-55082500D02*
X119925000Y-90424900D01*
X158750000Y-51908700D02*
X158750000Y-45720000D01*
X158750000Y-133418650D02*
X158750000Y-134620000D01*
X158750000Y-130093900D02*
X158750000Y-132217300D01*
X158750000Y-51908700D02*
X159023000Y-51908700D01*
X158750000Y-134620000D02*
X158750000Y-51908700D01*
X161843900Y-127000000D02*
X158750000Y-130093900D01*
X142953600Y-128501300D02*
X143138900Y-128686600D01*
X144698600Y-51908700D02*
X142953600Y-53653700D01*
X142953600Y-53653700D02*
X142953600Y-128501300D01*
X138430000Y-134620000D02*
X138430000Y-45720000D01*
X105410000Y-112336500D02*
X106375300Y-111371200D01*
X105410000Y-45720000D02*
X105141400Y-45988600D01*
X105141400Y-45988600D02*
X105141400Y-58364600D01*
X105410000Y-134620000D02*
X105410000Y-112336500D01*
X105141400Y-58364600D02*
X105410000Y-58633200D01*
X105410000Y-58633200D02*
X105410000Y-110405900D01*
X105410000Y-110405900D02*
X106375300Y-111371200D01*
X107981600Y-106648400D02*
X107981600Y-54628200D01*
X109625100Y-116513700D02*
X107950000Y-114838600D01*
X107950000Y-106680000D02*
X107981600Y-106648400D01*
X109625100Y-126594900D02*
X109625100Y-116513700D01*
X107950000Y-114838600D02*
X107950000Y-106680000D01*
X106680000Y-106680000D02*
X107950000Y-106680000D01*
X107981600Y-54628200D02*
X109035300Y-53574500D01*
X109220000Y-127000000D02*
X109625100Y-126594900D01*
X106680000Y-114300000D02*
X107611200Y-115231200D01*
X97417200Y-60062800D02*
X97417200Y-108681500D01*
X97597200Y-108861500D02*
X97597200Y-111132500D01*
X98271671Y-59208329D02*
X97417200Y-60062800D01*
X97597200Y-111132500D02*
X97356900Y-111372800D01*
X98271671Y-55439000D02*
X98271671Y-59208329D01*
X97417200Y-108681500D02*
X97597200Y-108861500D01*
X107611200Y-115231200D02*
X107611200Y-125502100D01*
X119324000Y-90175957D02*
X119420995Y-90078962D01*
X119420995Y-90770838D02*
X119324000Y-90673843D01*
X118052900Y-117356200D02*
X119420995Y-115988105D01*
X120650000Y-134620000D02*
X120650000Y-119953300D01*
X119420995Y-90078962D02*
X119420995Y-53625065D01*
X119420995Y-115988105D02*
X119420995Y-90770838D01*
X120650000Y-52396060D02*
X120650000Y-45720000D01*
X119420995Y-53625065D02*
X120650000Y-52396060D01*
X119324000Y-90673843D02*
X119324000Y-90175957D01*
X120650000Y-119953300D02*
X118052900Y-117356200D01*
X94827300Y-106972900D02*
X94827300Y-55386400D01*
X93980000Y-54539100D02*
X93980000Y-53207757D01*
X94827300Y-108378000D02*
X94718400Y-108269100D01*
X96520000Y-53126200D02*
X97627843Y-53126200D01*
X93980000Y-53207757D02*
X94448757Y-52739000D01*
X97670671Y-55190057D02*
X97670671Y-57570454D01*
X97979900Y-54880828D02*
X97670671Y-55190057D01*
X97243700Y-112169300D02*
X94827300Y-109752900D01*
X94448757Y-52739000D02*
X96132800Y-52739000D01*
X97757800Y-112169300D02*
X97243700Y-112169300D01*
X97979900Y-53478257D02*
X97979900Y-54880828D01*
X94827300Y-109752900D02*
X94827300Y-108378000D01*
X97670671Y-57570454D02*
X97526125Y-57715000D01*
X97627843Y-53126200D02*
X97979900Y-53478257D01*
X94827300Y-55386400D02*
X93980000Y-54539100D01*
X96132800Y-52739000D02*
X96520000Y-53126200D01*
X94718400Y-107081800D02*
X94827300Y-106972900D01*
X94718400Y-108269100D02*
X94718400Y-107081800D01*
X151130000Y-129431100D02*
X151130000Y-134620000D01*
X151130000Y-51686500D02*
X151130000Y-45720000D01*
X151450300Y-52006800D02*
X151130000Y-51686500D01*
X116840000Y-93980000D02*
X116840000Y-96520000D01*
X100330000Y-134620000D02*
X100330000Y-127711100D01*
X99792000Y-127173100D02*
X100330000Y-127711100D01*
X151678200Y-128882900D02*
X151130000Y-129431100D01*
X99792000Y-53166500D02*
X100330000Y-52628500D01*
X100330000Y-52628500D02*
X100330000Y-45720000D01*
X133350000Y-78774700D02*
X130133400Y-81991300D01*
X130133400Y-81991300D02*
X126600400Y-85524300D01*
X136349500Y-126119000D02*
X133350000Y-129118500D01*
X133350000Y-45720000D02*
X133350000Y-78774700D01*
X133350000Y-129118500D02*
X133350000Y-134620000D01*
X136349500Y-88207400D02*
X136349500Y-126119000D01*
X130133400Y-81991300D02*
X136349500Y-88207400D01*
X153670000Y-129141800D02*
X153213200Y-128685000D01*
X153213200Y-128685000D02*
X153213200Y-51974900D01*
X153670000Y-45720000D02*
X153670000Y-51385700D01*
X153670000Y-134620000D02*
X153670000Y-129141800D01*
X153213200Y-51974900D02*
X153147000Y-51908700D01*
X153670000Y-51385700D02*
X153147000Y-51908700D01*
X140970000Y-45720000D02*
X140970000Y-134620000D01*
X147630100Y-128686600D02*
X147428300Y-128484800D01*
X147428300Y-105386200D02*
X147367000Y-105386200D01*
X147428300Y-51908700D02*
X147428300Y-105386200D01*
X147428300Y-128484800D02*
X147428300Y-105386200D01*
X156005100Y-51908700D02*
X156210000Y-52113600D01*
X156210000Y-128685000D02*
X156210000Y-134620000D01*
X156210000Y-45720000D02*
X156005100Y-45924900D01*
X156210000Y-52113600D02*
X156210000Y-128685000D01*
X156005100Y-45924900D02*
X156005100Y-51908700D01*
X156300600Y-128685000D02*
X156210000Y-128685000D01*
X142552600Y-53487600D02*
X143510000Y-52530200D01*
X142537900Y-128437657D02*
X142552600Y-128422957D01*
X142537900Y-128935543D02*
X142537900Y-128437657D01*
X142552600Y-128422957D02*
X142552600Y-53487600D01*
X143510000Y-52530200D02*
X143510000Y-45720000D01*
X143510000Y-129907643D02*
X142537900Y-128935543D01*
X143510000Y-134620000D02*
X143510000Y-129907643D01*
X122857700Y-94611200D02*
X122857700Y-64893500D01*
X130994700Y-100771700D02*
X129730500Y-99507500D01*
X130810000Y-56941200D02*
X130810000Y-45720000D01*
X130810000Y-134620000D02*
X130994700Y-134435300D01*
X129730500Y-99507500D02*
X127754000Y-99507500D01*
X130994700Y-134435300D02*
X130994700Y-100771700D01*
X122857700Y-64893500D02*
X130810000Y-56941200D01*
X127754000Y-99507500D02*
X122857700Y-94611200D01*
X100479900Y-125592200D02*
X99723600Y-124835900D01*
X103455900Y-63491200D02*
X103016500Y-63930600D01*
X103016500Y-63930600D02*
X103016500Y-77616500D01*
X100554600Y-108373500D02*
X101539400Y-108373500D01*
X101539400Y-108373500D02*
X102701700Y-107211200D01*
X99723600Y-124835900D02*
X99723600Y-109204500D01*
X99723600Y-109204500D02*
X100554600Y-108373500D01*
X103016500Y-77616500D02*
X104140000Y-78740000D01*
X106041300Y-55169800D02*
X106041300Y-61527500D01*
X105743100Y-54871600D02*
X106041300Y-55169800D01*
X102701700Y-107211200D02*
X102701700Y-80178300D01*
X102701700Y-80178300D02*
X104140000Y-78740000D01*
X130393000Y-103291300D02*
X122404600Y-95302900D01*
X130393000Y-128224400D02*
X130393000Y-103291300D01*
X122404600Y-64525500D02*
X130063600Y-56866500D01*
X122404600Y-95302900D02*
X122404600Y-64525500D01*
X130063600Y-56866500D02*
X130063600Y-54513700D01*
X101423300Y-78563300D02*
X101600000Y-78740000D01*
X93836100Y-110863600D02*
X93836100Y-78453700D01*
X106672500Y-51638800D02*
X106672500Y-69150000D01*
X101600000Y-72547400D02*
X101423300Y-72724100D01*
X97234700Y-114262200D02*
X93836100Y-110863600D01*
X97234700Y-128658800D02*
X97234700Y-114262200D01*
X101423300Y-72724100D02*
X101423300Y-78563300D01*
X97208500Y-128685000D02*
X97234700Y-128658800D01*
X120526700Y-55331700D02*
X121445300Y-54413100D01*
X120358500Y-99504800D02*
X120358500Y-90842300D01*
X120358500Y-90842300D02*
X120526700Y-90674100D01*
X121445300Y-100591600D02*
X123891700Y-103038000D01*
X120526700Y-90674100D02*
X120526700Y-55331700D01*
X123891700Y-103038000D02*
X123891700Y-128686600D01*
X121445300Y-54413100D02*
X121445300Y-54210700D01*
X121445300Y-100591600D02*
X120358500Y-99504800D01*
X145931800Y-120980200D02*
X145931800Y-81036100D01*
X146050000Y-134620000D02*
X145731800Y-134301800D01*
X145931800Y-81036100D02*
X145792900Y-80897200D01*
X145792900Y-80897200D02*
X145792900Y-45977100D01*
X145792900Y-45977100D02*
X146050000Y-45720000D01*
X145731800Y-134301800D02*
X145731800Y-121180200D01*
X145731800Y-121180200D02*
X145931800Y-120980200D01*
X110704600Y-129626700D02*
X110704600Y-134405400D01*
X112308300Y-116142000D02*
X112308300Y-127548300D01*
X110592800Y-45822800D02*
X110592800Y-55791600D01*
X112308300Y-127548300D02*
X112303363Y-127553237D01*
X110704600Y-134405400D02*
X110490000Y-134620000D01*
X95680700Y-53974600D02*
X95721100Y-54015000D01*
X112303363Y-127553237D02*
X112303363Y-128027937D01*
X110490000Y-45720000D02*
X110592800Y-45822800D01*
X112303363Y-128027937D02*
X110704600Y-129626700D01*
X95721100Y-54015000D02*
X95721100Y-107497000D01*
X113030000Y-45720000D02*
X113030000Y-134620000D01*
X136325000Y-77263500D02*
X136325000Y-51908700D01*
X146333500Y-80709200D02*
X146394600Y-80648100D01*
X132804100Y-80784400D02*
X136325000Y-77263500D01*
X146333500Y-121429300D02*
X146333500Y-80709200D01*
X121591000Y-107396200D02*
X121591000Y-128685000D01*
X118353100Y-106272100D02*
X118309000Y-106316200D01*
X122802900Y-106184300D02*
X121591000Y-107396200D01*
X117731810Y-55708342D02*
X118353100Y-56329632D01*
X118353100Y-56329632D02*
X118353100Y-106272100D01*
X115570000Y-108241000D02*
X115570000Y-45720000D01*
X115570000Y-108241000D02*
X115570000Y-134620000D01*
X107379900Y-52115800D02*
X107379900Y-58409300D01*
X93192900Y-112006300D02*
X96633000Y-115446400D01*
X93863650Y-66156350D02*
X93192900Y-66827100D01*
X96633000Y-115446400D02*
X96633000Y-126333700D01*
X107942500Y-51553200D02*
X107379900Y-52115800D01*
X93192900Y-66827100D02*
X93192900Y-112006300D01*
X128270000Y-103684600D02*
X128270000Y-134620000D01*
X128270000Y-56670000D02*
X120971100Y-63968900D01*
X128270000Y-45720000D02*
X128270000Y-56670000D01*
X120971100Y-96385700D02*
X128270000Y-103684600D01*
X120971100Y-63968900D02*
X120971100Y-96385700D01*
X118110000Y-115653000D02*
X117239000Y-116524000D01*
X119019995Y-55865752D02*
X119019995Y-89912862D01*
X118110000Y-54955757D02*
X119019995Y-55865752D01*
X118110000Y-134620000D02*
X118110000Y-120650000D01*
X119019995Y-90936938D02*
X119019995Y-107277205D01*
X118923000Y-90009857D02*
X118923000Y-90839943D01*
X118110000Y-120650000D02*
X116840000Y-119380000D01*
X119019995Y-89912862D02*
X118923000Y-90009857D01*
X119019995Y-107277205D02*
X118110000Y-108187200D01*
X116840000Y-119380000D02*
X116840000Y-116923000D01*
X118923000Y-90839943D02*
X119019995Y-90936938D01*
X116840000Y-116923000D02*
X117239000Y-116524000D01*
X118110000Y-108187200D02*
X118110000Y-115653000D01*
X118110000Y-45720000D02*
X118110000Y-54955757D01*
X148462100Y-81446200D02*
X148462100Y-88685000D01*
X148462100Y-88685000D02*
X148759800Y-88982700D01*
X148683900Y-113123900D02*
X149860000Y-114300000D01*
X148683900Y-98377100D02*
X148683900Y-113123900D01*
X148759800Y-98301200D02*
X148683900Y-98377100D01*
X148759800Y-88982700D02*
X148759800Y-98301200D01*
X150148900Y-96314700D02*
X150148900Y-86648900D01*
X150148900Y-86648900D02*
X149860000Y-86360000D01*
X152369600Y-96550400D02*
X149860000Y-99060000D01*
X152369600Y-84023700D02*
X152369600Y-96550400D01*
X147860400Y-90166600D02*
X148117500Y-90423700D01*
X147860400Y-62959600D02*
X147860400Y-90166600D01*
X149860000Y-60960000D02*
X147860400Y-62959600D01*
X86707800Y-78888600D02*
X88150900Y-78888600D01*
X88150900Y-78888600D02*
X88259500Y-78780000D01*
X89811200Y-75331700D02*
X88259500Y-73780000D01*
X86360000Y-79236400D02*
X86707800Y-78888600D01*
X88259500Y-81280000D02*
X87558700Y-81280000D01*
X86360000Y-81777800D02*
X86857800Y-81280000D01*
X86360000Y-80782200D02*
X86360000Y-79236400D01*
X88259500Y-78780000D02*
X89811200Y-77228300D01*
X86857800Y-81280000D02*
X86360000Y-80782200D01*
X86465622Y-100142990D02*
X86360000Y-100037368D01*
X86360000Y-100037368D02*
X86360000Y-81777800D01*
X88259500Y-71280000D02*
X88259500Y-73780000D01*
X87558700Y-81280000D02*
X86857800Y-81280000D01*
X89811200Y-77228300D02*
X89811200Y-75331700D01*
X117951400Y-105568600D02*
X116840000Y-106680000D01*
X116190700Y-80648500D02*
X117951400Y-82409200D01*
X117951400Y-82409200D02*
X117951400Y-105568600D01*
X100449600Y-72270400D02*
X100449600Y-88900000D01*
X100449600Y-88900000D02*
X101600000Y-88900000D01*
X100449600Y-88900000D02*
X100449600Y-95130400D01*
X101600000Y-71120000D02*
X100449600Y-72270400D01*
X100449600Y-95130400D02*
X99060000Y-96520000D01*
%TA.AperFunction,Conductor*%
G36*
X96959638Y-50819685D02*
G01*
X97005393Y-50872489D01*
X97016599Y-50924000D01*
X97016599Y-51061946D01*
X97016600Y-51061959D01*
X97016600Y-51328934D01*
X96996915Y-51395973D01*
X96995702Y-51397825D01*
X96907709Y-51529514D01*
X96907702Y-51529527D01*
X96847364Y-51675198D01*
X96847361Y-51675210D01*
X96816600Y-51829853D01*
X96816600Y-51987546D01*
X96847361Y-52142189D01*
X96847364Y-52142201D01*
X96907702Y-52287872D01*
X96907709Y-52287884D01*
X96937727Y-52332809D01*
X96940764Y-52342509D01*
X96947419Y-52350189D01*
X96951027Y-52375286D01*
X96958605Y-52399486D01*
X96955916Y-52409286D01*
X96957363Y-52419347D01*
X96946828Y-52442413D01*
X96940121Y-52466866D01*
X96932560Y-52473657D01*
X96928338Y-52482903D01*
X96907005Y-52496612D01*
X96888142Y-52513557D01*
X96876544Y-52516188D01*
X96869560Y-52520677D01*
X96834625Y-52525700D01*
X96820097Y-52525700D01*
X96753058Y-52506015D01*
X96732416Y-52489381D01*
X96620390Y-52377355D01*
X96620388Y-52377352D01*
X96501517Y-52258481D01*
X96501509Y-52258475D01*
X96411805Y-52206685D01*
X96411804Y-52206685D01*
X96364585Y-52179423D01*
X96211857Y-52138499D01*
X96053743Y-52138499D01*
X96046147Y-52138499D01*
X96046131Y-52138500D01*
X94535427Y-52138500D01*
X94535411Y-52138499D01*
X94527815Y-52138499D01*
X94369700Y-52138499D01*
X94296210Y-52158191D01*
X94216971Y-52179423D01*
X94216966Y-52179426D01*
X94080047Y-52258475D01*
X94080039Y-52258481D01*
X93604217Y-52734303D01*
X93604214Y-52734305D01*
X93604215Y-52734306D01*
X93499478Y-52839043D01*
X93499475Y-52839047D01*
X93456396Y-52913664D01*
X93456396Y-52913665D01*
X93420423Y-52975972D01*
X93379499Y-53128700D01*
X93379499Y-53128702D01*
X93379499Y-53296803D01*
X93379500Y-53296816D01*
X93379500Y-54452430D01*
X93379499Y-54452448D01*
X93379499Y-54618154D01*
X93379498Y-54618154D01*
X93420423Y-54770885D01*
X93447168Y-54817207D01*
X93447169Y-54817211D01*
X93447170Y-54817211D01*
X93481515Y-54876700D01*
X93499479Y-54907814D01*
X93499481Y-54907817D01*
X93618349Y-55026685D01*
X93618355Y-55026690D01*
X94190481Y-55598816D01*
X94223966Y-55660139D01*
X94226800Y-55686497D01*
X94226800Y-58614093D01*
X94207115Y-58681132D01*
X94154311Y-58726887D01*
X94085153Y-58736831D01*
X94021597Y-58707806D01*
X93988239Y-58661547D01*
X93971803Y-58621867D01*
X93772721Y-58231145D01*
X93772715Y-58231136D01*
X93772713Y-58231131D01*
X93772710Y-58231126D01*
X93543602Y-57857257D01*
X93543598Y-57857252D01*
X93543596Y-57857248D01*
X93285843Y-57502480D01*
X93285838Y-57502473D01*
X93001054Y-57169036D01*
X93001049Y-57169030D01*
X92690970Y-56858951D01*
X92685793Y-56854529D01*
X92357526Y-56574161D01*
X92357512Y-56574151D01*
X92142224Y-56417736D01*
X92002752Y-56316404D01*
X92002749Y-56316402D01*
X92002742Y-56316397D01*
X91628873Y-56087289D01*
X91628868Y-56087286D01*
X91628858Y-56087281D01*
X91628855Y-56087279D01*
X91238133Y-55888197D01*
X91195274Y-55870444D01*
X90832991Y-55720380D01*
X90536256Y-55623966D01*
X90415942Y-55584874D01*
X90415930Y-55584871D01*
X89989539Y-55482503D01*
X89556425Y-55413905D01*
X89119263Y-55379500D01*
X89119258Y-55379500D01*
X88680742Y-55379500D01*
X88680736Y-55379500D01*
X88243575Y-55413905D01*
X88243574Y-55413905D01*
X87810460Y-55482503D01*
X87384069Y-55584871D01*
X87384063Y-55584872D01*
X87384058Y-55584874D01*
X87384046Y-55584878D01*
X86967008Y-55720380D01*
X86561880Y-55888191D01*
X86561867Y-55888197D01*
X86171131Y-56087286D01*
X86171126Y-56087289D01*
X85797257Y-56316397D01*
X85797246Y-56316405D01*
X85442487Y-56574151D01*
X85442473Y-56574161D01*
X85109036Y-56858945D01*
X85109022Y-56858958D01*
X84798958Y-57169022D01*
X84798945Y-57169036D01*
X84514161Y-57502473D01*
X84514151Y-57502487D01*
X84256405Y-57857246D01*
X84256397Y-57857257D01*
X84027289Y-58231126D01*
X84027286Y-58231131D01*
X83828197Y-58621867D01*
X83828191Y-58621880D01*
X83660380Y-59027008D01*
X83524878Y-59444046D01*
X83524871Y-59444069D01*
X83422503Y-59870460D01*
X83353905Y-60303574D01*
X83353905Y-60303575D01*
X83319500Y-60740736D01*
X83319500Y-61179263D01*
X83353905Y-61616424D01*
X83353905Y-61616425D01*
X83422503Y-62049539D01*
X83503211Y-62385711D01*
X83524874Y-62475942D01*
X83554363Y-62566700D01*
X83660380Y-62892991D01*
X83784507Y-63192657D01*
X83828197Y-63298133D01*
X83947722Y-63532715D01*
X84027286Y-63688868D01*
X84027289Y-63688873D01*
X84256397Y-64062742D01*
X84256405Y-64062753D01*
X84514151Y-64417512D01*
X84514161Y-64417526D01*
X84798945Y-64750963D01*
X84798951Y-64750970D01*
X85109030Y-65061049D01*
X85109036Y-65061054D01*
X85442473Y-65345838D01*
X85442480Y-65345843D01*
X85797248Y-65603596D01*
X85797252Y-65603598D01*
X85797257Y-65603602D01*
X86171126Y-65832710D01*
X86171131Y-65832713D01*
X86171136Y-65832715D01*
X86171145Y-65832721D01*
X86561867Y-66031803D01*
X86673874Y-66078198D01*
X86967008Y-66199619D01*
X87073050Y-66234073D01*
X87384058Y-66335126D01*
X87810458Y-66437496D01*
X88243576Y-66506095D01*
X88680742Y-66540500D01*
X88680750Y-66540500D01*
X89119250Y-66540500D01*
X89119258Y-66540500D01*
X89556424Y-66506095D01*
X89989542Y-66437496D01*
X90415942Y-66335126D01*
X90832997Y-66199617D01*
X91238133Y-66031803D01*
X91628855Y-65832721D01*
X92002752Y-65603596D01*
X92357520Y-65345843D01*
X92690970Y-65061049D01*
X93001049Y-64750970D01*
X93285843Y-64417520D01*
X93543596Y-64062752D01*
X93772721Y-63688855D01*
X93971803Y-63298133D01*
X93988239Y-63258452D01*
X94032080Y-63204050D01*
X94098374Y-63181985D01*
X94166074Y-63199264D01*
X94213684Y-63250402D01*
X94226800Y-63305906D01*
X94226800Y-65261308D01*
X94207115Y-65328347D01*
X94154311Y-65374102D01*
X94085153Y-65384046D01*
X94078609Y-65382925D01*
X93942495Y-65355850D01*
X93942492Y-65355850D01*
X93784808Y-65355850D01*
X93784805Y-65355850D01*
X93630160Y-65386611D01*
X93630148Y-65386614D01*
X93484477Y-65446952D01*
X93484464Y-65446959D01*
X93353361Y-65534560D01*
X93353357Y-65534563D01*
X93241863Y-65646057D01*
X93241860Y-65646061D01*
X93154259Y-65777164D01*
X93154252Y-65777177D01*
X93093914Y-65922848D01*
X93093911Y-65922858D01*
X93063012Y-66078198D01*
X93030627Y-66140109D01*
X93029076Y-66141687D01*
X92824186Y-66346578D01*
X92712381Y-66458382D01*
X92712377Y-66458387D01*
X92667841Y-66535528D01*
X92667841Y-66535529D01*
X92633323Y-66595314D01*
X92633323Y-66595315D01*
X92592399Y-66748043D01*
X92592399Y-66748045D01*
X92592399Y-66916146D01*
X92592400Y-66916159D01*
X92592400Y-111919630D01*
X92592399Y-111919648D01*
X92592399Y-112085354D01*
X92592398Y-112085354D01*
X92633323Y-112238085D01*
X92662258Y-112288200D01*
X92662259Y-112288204D01*
X92662260Y-112288204D01*
X92681280Y-112321149D01*
X92712379Y-112375014D01*
X92712381Y-112375017D01*
X92831249Y-112493885D01*
X92831255Y-112493890D01*
X95996181Y-115658816D01*
X96029666Y-115720139D01*
X96032500Y-115746497D01*
X96032500Y-125753934D01*
X96012815Y-125820973D01*
X96011602Y-125822825D01*
X95923609Y-125954514D01*
X95923602Y-125954527D01*
X95863264Y-126100198D01*
X95863261Y-126100210D01*
X95832500Y-126254853D01*
X95832500Y-126412546D01*
X95863261Y-126567189D01*
X95863264Y-126567201D01*
X95923602Y-126712872D01*
X95923609Y-126712885D01*
X96011210Y-126843988D01*
X96011213Y-126843992D01*
X96122707Y-126955486D01*
X96122711Y-126955489D01*
X96253814Y-127043090D01*
X96253827Y-127043097D01*
X96362599Y-127088151D01*
X96399503Y-127103437D01*
X96534391Y-127130268D01*
X96596302Y-127162652D01*
X96630876Y-127223368D01*
X96634200Y-127251885D01*
X96634200Y-128075859D01*
X96614515Y-128142898D01*
X96597881Y-128163540D01*
X96586713Y-128174707D01*
X96586710Y-128174711D01*
X96499109Y-128305814D01*
X96499104Y-128305823D01*
X96463496Y-128391791D01*
X96419655Y-128446194D01*
X96353361Y-128468259D01*
X96285662Y-128450980D01*
X96261254Y-128432019D01*
X95582049Y-127752814D01*
X94814573Y-126985337D01*
X94781088Y-126924014D01*
X94780637Y-126921847D01*
X94780499Y-126921153D01*
X94749737Y-126766503D01*
X94727528Y-126712885D01*
X94689397Y-126620827D01*
X94689390Y-126620814D01*
X94601789Y-126489711D01*
X94601786Y-126489707D01*
X94490292Y-126378213D01*
X94490288Y-126378210D01*
X94359185Y-126290609D01*
X94359172Y-126290602D01*
X94213501Y-126230264D01*
X94213489Y-126230261D01*
X94058845Y-126199500D01*
X94058842Y-126199500D01*
X93901158Y-126199500D01*
X93901155Y-126199500D01*
X93746510Y-126230261D01*
X93746498Y-126230264D01*
X93600827Y-126290602D01*
X93600814Y-126290609D01*
X93469711Y-126378210D01*
X93469707Y-126378213D01*
X93358213Y-126489707D01*
X93358210Y-126489711D01*
X93270609Y-126620814D01*
X93270602Y-126620827D01*
X93210264Y-126766498D01*
X93210261Y-126766510D01*
X93179500Y-126921153D01*
X93179500Y-127078846D01*
X93210261Y-127233489D01*
X93210264Y-127233501D01*
X93270602Y-127379172D01*
X93270609Y-127379185D01*
X93358210Y-127510288D01*
X93358213Y-127510292D01*
X93469707Y-127621786D01*
X93469711Y-127621789D01*
X93600814Y-127709390D01*
X93600827Y-127709397D01*
X93746498Y-127769735D01*
X93746503Y-127769737D01*
X93811147Y-127782595D01*
X93901849Y-127800638D01*
X93963760Y-127833023D01*
X93965339Y-127834574D01*
X95459084Y-129328319D01*
X95492569Y-129389642D01*
X95487585Y-129459334D01*
X95445713Y-129515267D01*
X95380249Y-129539684D01*
X95371403Y-129540000D01*
X79243977Y-129540000D01*
X79247529Y-119160736D01*
X83319500Y-119160736D01*
X83319500Y-119599263D01*
X83353905Y-120036424D01*
X83353905Y-120036425D01*
X83422503Y-120469539D01*
X83504597Y-120811482D01*
X83524874Y-120895942D01*
X83542470Y-120950097D01*
X83660380Y-121312991D01*
X83828191Y-121718119D01*
X83828197Y-121718133D01*
X84027279Y-122108855D01*
X84027286Y-122108868D01*
X84027289Y-122108873D01*
X84256397Y-122482742D01*
X84256405Y-122482753D01*
X84514151Y-122837512D01*
X84514161Y-122837526D01*
X84798945Y-123170963D01*
X84798951Y-123170970D01*
X85109030Y-123481049D01*
X85109036Y-123481054D01*
X85442473Y-123765838D01*
X85442480Y-123765843D01*
X85797248Y-124023596D01*
X85797252Y-124023598D01*
X85797257Y-124023602D01*
X86171126Y-124252710D01*
X86171131Y-124252713D01*
X86171136Y-124252715D01*
X86171145Y-124252721D01*
X86561867Y-124451803D01*
X86888655Y-124587164D01*
X86967008Y-124619619D01*
X87073050Y-124654073D01*
X87384058Y-124755126D01*
X87810458Y-124857496D01*
X88243576Y-124926095D01*
X88680742Y-124960500D01*
X88680750Y-124960500D01*
X89119250Y-124960500D01*
X89119258Y-124960500D01*
X89556424Y-124926095D01*
X89989542Y-124857496D01*
X90415942Y-124755126D01*
X90832997Y-124619617D01*
X91238133Y-124451803D01*
X91628855Y-124252721D01*
X92002752Y-124023596D01*
X92357520Y-123765843D01*
X92690970Y-123481049D01*
X93001049Y-123170970D01*
X93285843Y-122837520D01*
X93543596Y-122482752D01*
X93772721Y-122108855D01*
X93971803Y-121718133D01*
X94139617Y-121312997D01*
X94275126Y-120895942D01*
X94377496Y-120469542D01*
X94446095Y-120036424D01*
X94480500Y-119599258D01*
X94480500Y-119160742D01*
X94446095Y-118723576D01*
X94377496Y-118290458D01*
X94275126Y-117864058D01*
X94139617Y-117447003D01*
X93971803Y-117041867D01*
X93772721Y-116651145D01*
X93772715Y-116651136D01*
X93772713Y-116651131D01*
X93772710Y-116651126D01*
X93543602Y-116277257D01*
X93543598Y-116277252D01*
X93543596Y-116277248D01*
X93285843Y-115922480D01*
X93285838Y-115922473D01*
X93003026Y-115591345D01*
X93001049Y-115589030D01*
X92690970Y-115278951D01*
X92690963Y-115278945D01*
X92357526Y-114994161D01*
X92357512Y-114994151D01*
X92144897Y-114839678D01*
X92002752Y-114736404D01*
X92002749Y-114736402D01*
X92002742Y-114736397D01*
X91628873Y-114507289D01*
X91628868Y-114507286D01*
X91628858Y-114507281D01*
X91628855Y-114507279D01*
X91238133Y-114308197D01*
X91238119Y-114308191D01*
X90832991Y-114140380D01*
X90536256Y-114043966D01*
X90415942Y-114004874D01*
X90415930Y-114004871D01*
X89989539Y-113902503D01*
X89556425Y-113833905D01*
X89119263Y-113799500D01*
X89119258Y-113799500D01*
X88680742Y-113799500D01*
X88680736Y-113799500D01*
X88243575Y-113833905D01*
X88243574Y-113833905D01*
X87810460Y-113902503D01*
X87384069Y-114004871D01*
X87384063Y-114004872D01*
X87384058Y-114004874D01*
X87384046Y-114004878D01*
X86967008Y-114140380D01*
X86561880Y-114308191D01*
X86561867Y-114308197D01*
X86171131Y-114507286D01*
X86171126Y-114507289D01*
X85797257Y-114736397D01*
X85797246Y-114736405D01*
X85442487Y-114994151D01*
X85442473Y-114994161D01*
X85109036Y-115278945D01*
X85109022Y-115278958D01*
X84798958Y-115589022D01*
X84798945Y-115589036D01*
X84514161Y-115922473D01*
X84514151Y-115922487D01*
X84256405Y-116277246D01*
X84256397Y-116277257D01*
X84027289Y-116651126D01*
X84027286Y-116651131D01*
X83828197Y-117041867D01*
X83828191Y-117041880D01*
X83660380Y-117447008D01*
X83524878Y-117864046D01*
X83524871Y-117864069D01*
X83422503Y-118290460D01*
X83353905Y-118723574D01*
X83353905Y-118723575D01*
X83319500Y-119160736D01*
X79247529Y-119160736D01*
X79254072Y-100040638D01*
X85165122Y-100040638D01*
X85165122Y-100245341D01*
X85197144Y-100447524D01*
X85260403Y-100642213D01*
X85353337Y-100824603D01*
X85473650Y-100990203D01*
X85618404Y-101134957D01*
X85618409Y-101134961D01*
X85674262Y-101175541D01*
X85716928Y-101230871D01*
X85722907Y-101300484D01*
X85690301Y-101362279D01*
X85640383Y-101393564D01*
X85596291Y-101408175D01*
X85596288Y-101408176D01*
X85596285Y-101408177D01*
X85446964Y-101500279D01*
X85322911Y-101624332D01*
X85230809Y-101773653D01*
X85230808Y-101773656D01*
X85175623Y-101940193D01*
X85175623Y-101940194D01*
X85175622Y-101940194D01*
X85165122Y-102042973D01*
X85165122Y-103242991D01*
X85165123Y-103243008D01*
X85175622Y-103345786D01*
X85175623Y-103345789D01*
X85207601Y-103442290D01*
X85230808Y-103512324D01*
X85322910Y-103661646D01*
X85446966Y-103785702D01*
X85596288Y-103877804D01*
X85762825Y-103932989D01*
X85865613Y-103943490D01*
X87065630Y-103943489D01*
X87168419Y-103932989D01*
X87334956Y-103877804D01*
X87484278Y-103785702D01*
X87608334Y-103661646D01*
X87700436Y-103512324D01*
X87755621Y-103345787D01*
X87766122Y-103242999D01*
X87766121Y-102042982D01*
X87755621Y-101940193D01*
X87700436Y-101773656D01*
X87608334Y-101624334D01*
X87484278Y-101500278D01*
X87334956Y-101408176D01*
X87290861Y-101393564D01*
X87233417Y-101353792D01*
X87206594Y-101289276D01*
X87218909Y-101220500D01*
X87256981Y-101175540D01*
X87312841Y-101134956D01*
X87457588Y-100990209D01*
X87457590Y-100990205D01*
X87457593Y-100990203D01*
X87551637Y-100860760D01*
X87577909Y-100824600D01*
X87670842Y-100642209D01*
X87734099Y-100447524D01*
X87766122Y-100245342D01*
X87766122Y-100040638D01*
X87741029Y-99882209D01*
X87734099Y-99838455D01*
X87670840Y-99643766D01*
X87637125Y-99577597D01*
X87577909Y-99461380D01*
X87554135Y-99428658D01*
X87457593Y-99295776D01*
X87312835Y-99151018D01*
X87147232Y-99030702D01*
X87147230Y-99030701D01*
X87028205Y-98970054D01*
X86977409Y-98922080D01*
X86960500Y-98859570D01*
X86960500Y-82303149D01*
X86980185Y-82236110D01*
X87032989Y-82190355D01*
X87102147Y-82180411D01*
X87157387Y-82202832D01*
X87182710Y-82221231D01*
X87182712Y-82221232D01*
X87337055Y-82299873D01*
X87501799Y-82353402D01*
X87672889Y-82380500D01*
X87672890Y-82380500D01*
X88846110Y-82380500D01*
X88846111Y-82380500D01*
X89017201Y-82353402D01*
X89181945Y-82299873D01*
X89336288Y-82221232D01*
X89476428Y-82119414D01*
X89598914Y-81996928D01*
X89700732Y-81856788D01*
X89779373Y-81702445D01*
X89832902Y-81537701D01*
X89860000Y-81366611D01*
X89860000Y-81193389D01*
X89832902Y-81022299D01*
X89779373Y-80857555D01*
X89700732Y-80703212D01*
X89598914Y-80563072D01*
X89476428Y-80440586D01*
X89336288Y-80338768D01*
X89181945Y-80260127D01*
X89135244Y-80244952D01*
X89077571Y-80205516D01*
X89050373Y-80141157D01*
X89062288Y-80072311D01*
X89109532Y-80020835D01*
X89135243Y-80009093D01*
X89208719Y-79985220D01*
X89391110Y-79892287D01*
X89495124Y-79816717D01*
X89556713Y-79771971D01*
X89556715Y-79771968D01*
X89556719Y-79771966D01*
X89701466Y-79627219D01*
X89701468Y-79627215D01*
X89701471Y-79627213D01*
X89804633Y-79485220D01*
X89821787Y-79461610D01*
X89914720Y-79279219D01*
X89977977Y-79084534D01*
X90010000Y-78882352D01*
X90010000Y-78677648D01*
X90009268Y-78673028D01*
X89977977Y-78475465D01*
X89952327Y-78396523D01*
X89914720Y-78280781D01*
X89914717Y-78280777D01*
X89914717Y-78280774D01*
X89877713Y-78208151D01*
X89852073Y-78157830D01*
X89839177Y-78089164D01*
X89865453Y-78024423D01*
X89874868Y-78013865D01*
X90169706Y-77719028D01*
X90169711Y-77719024D01*
X90179914Y-77708820D01*
X90179916Y-77708820D01*
X90291720Y-77597016D01*
X90346080Y-77502861D01*
X90346386Y-77502332D01*
X90370774Y-77460090D01*
X90370773Y-77460090D01*
X90370777Y-77460085D01*
X90411700Y-77307357D01*
X90411700Y-77149243D01*
X90411700Y-75252643D01*
X90370777Y-75099916D01*
X90370777Y-75099915D01*
X90341079Y-75048477D01*
X90291720Y-74962984D01*
X90179916Y-74851180D01*
X90179915Y-74851179D01*
X90175585Y-74846849D01*
X90175574Y-74846839D01*
X89808632Y-74479897D01*
X89775147Y-74418574D01*
X89780131Y-74348882D01*
X89785829Y-74335920D01*
X89814717Y-74279225D01*
X89814718Y-74279223D01*
X89814720Y-74279219D01*
X89877977Y-74084534D01*
X89910000Y-73882352D01*
X89910000Y-73677648D01*
X89890994Y-73557648D01*
X89877977Y-73475465D01*
X89814718Y-73280776D01*
X89781003Y-73214607D01*
X89721787Y-73098390D01*
X89704910Y-73075160D01*
X89601471Y-72932786D01*
X89456713Y-72788028D01*
X89291113Y-72667715D01*
X89291112Y-72667714D01*
X89291110Y-72667713D01*
X89203459Y-72623052D01*
X89108720Y-72574780D01*
X89085244Y-72567152D01*
X89027569Y-72527713D01*
X89000373Y-72463354D01*
X89012289Y-72394508D01*
X89059534Y-72343033D01*
X89085240Y-72331294D01*
X89181945Y-72299873D01*
X89336288Y-72221232D01*
X89476428Y-72119414D01*
X89598914Y-71996928D01*
X89700732Y-71856788D01*
X89779373Y-71702445D01*
X89832902Y-71537701D01*
X89860000Y-71366611D01*
X89860000Y-71193389D01*
X89832902Y-71022299D01*
X89779373Y-70857555D01*
X89700732Y-70703212D01*
X89598914Y-70563072D01*
X89476428Y-70440586D01*
X89336288Y-70338768D01*
X89181945Y-70260127D01*
X89017201Y-70206598D01*
X89017199Y-70206597D01*
X89017198Y-70206597D01*
X88870911Y-70183428D01*
X88846111Y-70179500D01*
X87672889Y-70179500D01*
X87648089Y-70183428D01*
X87501802Y-70206597D01*
X87337052Y-70260128D01*
X87182711Y-70338768D01*
X87102756Y-70396859D01*
X87042572Y-70440586D01*
X87042570Y-70440588D01*
X87042569Y-70440588D01*
X86920088Y-70563069D01*
X86920088Y-70563070D01*
X86920086Y-70563072D01*
X86879181Y-70619373D01*
X86818268Y-70703211D01*
X86739628Y-70857552D01*
X86686097Y-71022302D01*
X86659000Y-71193389D01*
X86659000Y-71366610D01*
X86673854Y-71460399D01*
X86686098Y-71537701D01*
X86739627Y-71702445D01*
X86818268Y-71856788D01*
X86920086Y-71996928D01*
X87042572Y-72119414D01*
X87182712Y-72221232D01*
X87337055Y-72299873D01*
X87433754Y-72331292D01*
X87491427Y-72370728D01*
X87518626Y-72435087D01*
X87506712Y-72503933D01*
X87459468Y-72555409D01*
X87433756Y-72567152D01*
X87410277Y-72574781D01*
X87227886Y-72667715D01*
X87062286Y-72788028D01*
X86917528Y-72932786D01*
X86797215Y-73098386D01*
X86704281Y-73280776D01*
X86641022Y-73475465D01*
X86609000Y-73677648D01*
X86609000Y-73882351D01*
X86641022Y-74084534D01*
X86704281Y-74279223D01*
X86739775Y-74348882D01*
X86773009Y-74414108D01*
X86797215Y-74461613D01*
X86917528Y-74627213D01*
X87062286Y-74771971D01*
X87190632Y-74865218D01*
X87227890Y-74892287D01*
X87298917Y-74928477D01*
X87410276Y-74985218D01*
X87410278Y-74985218D01*
X87410281Y-74985220D01*
X87514637Y-75019127D01*
X87604965Y-75048477D01*
X87699166Y-75063397D01*
X87807148Y-75080500D01*
X88659403Y-75080500D01*
X88726442Y-75100185D01*
X88747084Y-75116819D01*
X89174381Y-75544116D01*
X89207866Y-75605439D01*
X89210700Y-75631797D01*
X89210700Y-75763939D01*
X89191015Y-75830978D01*
X89138211Y-75876733D01*
X89069053Y-75886677D01*
X89005497Y-75857652D01*
X88983598Y-75832830D01*
X88920126Y-75737838D01*
X88920123Y-75737834D01*
X88801662Y-75619373D01*
X88662360Y-75526295D01*
X88507582Y-75462184D01*
X88507574Y-75462182D01*
X88343271Y-75429500D01*
X88343267Y-75429500D01*
X88175733Y-75429500D01*
X88175728Y-75429500D01*
X88011425Y-75462182D01*
X88011417Y-75462184D01*
X87856639Y-75526295D01*
X87717337Y-75619373D01*
X87598873Y-75737837D01*
X87505795Y-75877139D01*
X87441684Y-76031917D01*
X87441682Y-76031925D01*
X87409000Y-76196228D01*
X87409000Y-76363771D01*
X87441682Y-76528074D01*
X87441684Y-76528082D01*
X87505795Y-76682860D01*
X87598873Y-76822162D01*
X87717337Y-76940626D01*
X87775614Y-76979565D01*
X87856637Y-77033703D01*
X88011418Y-77097816D01*
X88175728Y-77130499D01*
X88175732Y-77130500D01*
X88175733Y-77130500D01*
X88343268Y-77130500D01*
X88343269Y-77130499D01*
X88507582Y-77097816D01*
X88662363Y-77033703D01*
X88801662Y-76940626D01*
X88920126Y-76822162D01*
X88983599Y-76727168D01*
X89037210Y-76682364D01*
X89106534Y-76673657D01*
X89169562Y-76703811D01*
X89206282Y-76763254D01*
X89210700Y-76796060D01*
X89210700Y-76928203D01*
X89191015Y-76995242D01*
X89174381Y-77015884D01*
X88747084Y-77443181D01*
X88685761Y-77476666D01*
X88659403Y-77479500D01*
X87707148Y-77479500D01*
X87682829Y-77483351D01*
X87504965Y-77511522D01*
X87310276Y-77574781D01*
X87127886Y-77667715D01*
X86962286Y-77788028D01*
X86817528Y-77932786D01*
X86697213Y-78098388D01*
X86621156Y-78247657D01*
X86573182Y-78298452D01*
X86542769Y-78311135D01*
X86476017Y-78329022D01*
X86476009Y-78329026D01*
X86339090Y-78408075D01*
X86339082Y-78408081D01*
X85879481Y-78867682D01*
X85879477Y-78867687D01*
X85834326Y-78945893D01*
X85834326Y-78945894D01*
X85800423Y-79004614D01*
X85800423Y-79004615D01*
X85759499Y-79157343D01*
X85759499Y-79157345D01*
X85759499Y-79325446D01*
X85759500Y-79325459D01*
X85759500Y-80695530D01*
X85759499Y-80695548D01*
X85759499Y-80861254D01*
X85759498Y-80861254D01*
X85800422Y-81013983D01*
X85828589Y-81062770D01*
X85879477Y-81150912D01*
X85879481Y-81150917D01*
X85920883Y-81192319D01*
X85921633Y-81193693D01*
X85922991Y-81194478D01*
X85938330Y-81224271D01*
X85954368Y-81253642D01*
X85954256Y-81255204D01*
X85954974Y-81256598D01*
X85951772Y-81289936D01*
X85949384Y-81323334D01*
X85948396Y-81325091D01*
X85948295Y-81326147D01*
X85944984Y-81331162D01*
X85930632Y-81356704D01*
X85926087Y-81362476D01*
X85879480Y-81409084D01*
X85856666Y-81448600D01*
X85800423Y-81546015D01*
X85759499Y-81698743D01*
X85759499Y-81698745D01*
X85759499Y-81866846D01*
X85759500Y-81866859D01*
X85759500Y-98985330D01*
X85739815Y-99052369D01*
X85708387Y-99085646D01*
X85649661Y-99128314D01*
X85618400Y-99151026D01*
X85473650Y-99295776D01*
X85353337Y-99461376D01*
X85260403Y-99643766D01*
X85197144Y-99838455D01*
X85165122Y-100040638D01*
X79254072Y-100040638D01*
X79259956Y-82846052D01*
X79260000Y-82845892D01*
X79260000Y-82720122D01*
X79260002Y-82714279D01*
X79260001Y-82714277D01*
X79260004Y-82706747D01*
X79260000Y-82706666D01*
X79260000Y-81196228D01*
X79909000Y-81196228D01*
X79909000Y-81363771D01*
X79941682Y-81528074D01*
X79941684Y-81528082D01*
X80005795Y-81682860D01*
X80098873Y-81822162D01*
X80217337Y-81940626D01*
X80309994Y-82002537D01*
X80356637Y-82033703D01*
X80356638Y-82033703D01*
X80356639Y-82033704D01*
X80391701Y-82048227D01*
X80511418Y-82097816D01*
X80675728Y-82130499D01*
X80675732Y-82130500D01*
X80675733Y-82130500D01*
X80843268Y-82130500D01*
X80843269Y-82130499D01*
X81007582Y-82097816D01*
X81162363Y-82033703D01*
X81301662Y-81940626D01*
X81420126Y-81822162D01*
X81513203Y-81682863D01*
X81577316Y-81528082D01*
X81610000Y-81363767D01*
X81610000Y-81196233D01*
X81609999Y-81196228D01*
X82409000Y-81196228D01*
X82409000Y-81363771D01*
X82441682Y-81528074D01*
X82441684Y-81528082D01*
X82505795Y-81682860D01*
X82598873Y-81822162D01*
X82717337Y-81940626D01*
X82809994Y-82002537D01*
X82856637Y-82033703D01*
X82856638Y-82033703D01*
X82856639Y-82033704D01*
X82891701Y-82048227D01*
X83011418Y-82097816D01*
X83175728Y-82130499D01*
X83175732Y-82130500D01*
X83175733Y-82130500D01*
X83343268Y-82130500D01*
X83343269Y-82130499D01*
X83507582Y-82097816D01*
X83662363Y-82033703D01*
X83801662Y-81940626D01*
X83920126Y-81822162D01*
X84013203Y-81682863D01*
X84077316Y-81528082D01*
X84110000Y-81363767D01*
X84110000Y-81196233D01*
X84077316Y-81031918D01*
X84013203Y-80877137D01*
X83977974Y-80824413D01*
X83920126Y-80737837D01*
X83801662Y-80619373D01*
X83662360Y-80526295D01*
X83507582Y-80462184D01*
X83507574Y-80462182D01*
X83343271Y-80429500D01*
X83343267Y-80429500D01*
X83175733Y-80429500D01*
X83175728Y-80429500D01*
X83011425Y-80462182D01*
X83011417Y-80462184D01*
X82856639Y-80526295D01*
X82717337Y-80619373D01*
X82598873Y-80737837D01*
X82505795Y-80877139D01*
X82441684Y-81031917D01*
X82441682Y-81031925D01*
X82409000Y-81196228D01*
X81609999Y-81196228D01*
X81577316Y-81031918D01*
X81513203Y-80877137D01*
X81477974Y-80824413D01*
X81420126Y-80737837D01*
X81301662Y-80619373D01*
X81162360Y-80526295D01*
X81007582Y-80462184D01*
X81007574Y-80462182D01*
X80843271Y-80429500D01*
X80843267Y-80429500D01*
X80675733Y-80429500D01*
X80675728Y-80429500D01*
X80511425Y-80462182D01*
X80511417Y-80462184D01*
X80356639Y-80526295D01*
X80217337Y-80619373D01*
X80098873Y-80737837D01*
X80005795Y-80877139D01*
X79941684Y-81031917D01*
X79941682Y-81031925D01*
X79909000Y-81196228D01*
X79260000Y-81196228D01*
X79260000Y-79104500D01*
X79279685Y-79037461D01*
X79332489Y-78991706D01*
X79384000Y-78980500D01*
X79848193Y-78980500D01*
X79848194Y-78980499D01*
X79943157Y-78961610D01*
X80022158Y-78945896D01*
X80022161Y-78945894D01*
X80022166Y-78945894D01*
X80186047Y-78878013D01*
X80333535Y-78779464D01*
X80458964Y-78654035D01*
X80557513Y-78506547D01*
X80625394Y-78342666D01*
X80625925Y-78340000D01*
X80659999Y-78168695D01*
X80660000Y-78168693D01*
X80660000Y-76866571D01*
X82159500Y-76866571D01*
X82186585Y-77037584D01*
X82240091Y-77202257D01*
X82318695Y-77356524D01*
X82420467Y-77496602D01*
X82542897Y-77619032D01*
X82682975Y-77720804D01*
X82837244Y-77799408D01*
X83001915Y-77852914D01*
X83001914Y-77852914D01*
X83009499Y-77854115D01*
X83509500Y-77854115D01*
X83517084Y-77852914D01*
X83681755Y-77799408D01*
X83836024Y-77720804D01*
X83976102Y-77619032D01*
X84098532Y-77496602D01*
X84200304Y-77356524D01*
X84278908Y-77202257D01*
X84332414Y-77037584D01*
X84359500Y-76866571D01*
X84359500Y-76530000D01*
X83509500Y-76530000D01*
X83509500Y-77854115D01*
X83009499Y-77854115D01*
X83009500Y-77854114D01*
X83009500Y-76530000D01*
X82159500Y-76530000D01*
X82159500Y-76866571D01*
X80660000Y-76866571D01*
X80660000Y-75693428D01*
X82159500Y-75693428D01*
X82159500Y-76030000D01*
X83009500Y-76030000D01*
X83009500Y-75740218D01*
X83059500Y-75740218D01*
X83059500Y-76819782D01*
X83089948Y-76893291D01*
X83146209Y-76949552D01*
X83219718Y-76980000D01*
X83299282Y-76980000D01*
X83372791Y-76949552D01*
X83429052Y-76893291D01*
X83459500Y-76819782D01*
X83459500Y-76030000D01*
X83509500Y-76030000D01*
X84359500Y-76030000D01*
X84359500Y-75693428D01*
X84332414Y-75522415D01*
X84278908Y-75357742D01*
X84200304Y-75203475D01*
X84098532Y-75063397D01*
X83976102Y-74940967D01*
X83836024Y-74839195D01*
X83681757Y-74760591D01*
X83517089Y-74707087D01*
X83517081Y-74707085D01*
X83509500Y-74705884D01*
X83509500Y-76030000D01*
X83459500Y-76030000D01*
X83459500Y-75740218D01*
X83429052Y-75666709D01*
X83372791Y-75610448D01*
X83299282Y-75580000D01*
X83219718Y-75580000D01*
X83146209Y-75610448D01*
X83089948Y-75666709D01*
X83059500Y-75740218D01*
X83009500Y-75740218D01*
X83009500Y-74705884D01*
X83009499Y-74705884D01*
X83001918Y-74707085D01*
X83001910Y-74707087D01*
X82837242Y-74760591D01*
X82682975Y-74839195D01*
X82542897Y-74940967D01*
X82420467Y-75063397D01*
X82318695Y-75203475D01*
X82240091Y-75357742D01*
X82186585Y-75522415D01*
X82159500Y-75693428D01*
X80660000Y-75693428D01*
X80660000Y-74391306D01*
X80659999Y-74391304D01*
X80625396Y-74217341D01*
X80625393Y-74217332D01*
X80557516Y-74053459D01*
X80557509Y-74053446D01*
X80458964Y-73905965D01*
X80458961Y-73905961D01*
X80333538Y-73780538D01*
X80333534Y-73780535D01*
X80186053Y-73681990D01*
X80186040Y-73681983D01*
X80022167Y-73614106D01*
X80022158Y-73614103D01*
X79848194Y-73579500D01*
X79848191Y-73579500D01*
X79825392Y-73579500D01*
X79384000Y-73579500D01*
X79316961Y-73559815D01*
X79271206Y-73507011D01*
X79260000Y-73455500D01*
X79260000Y-71196228D01*
X79909000Y-71196228D01*
X79909000Y-71363771D01*
X79941682Y-71528074D01*
X79941684Y-71528082D01*
X80005795Y-71682860D01*
X80098873Y-71822162D01*
X80217337Y-71940626D01*
X80309994Y-72002537D01*
X80356637Y-72033703D01*
X80511418Y-72097816D01*
X80651657Y-72125711D01*
X80675728Y-72130499D01*
X80675732Y-72130500D01*
X80675733Y-72130500D01*
X80843268Y-72130500D01*
X80843269Y-72130499D01*
X81007582Y-72097816D01*
X81162363Y-72033703D01*
X81301662Y-71940626D01*
X81420126Y-71822162D01*
X81513203Y-71682863D01*
X81577316Y-71528082D01*
X81610000Y-71363767D01*
X81610000Y-71196233D01*
X81609999Y-71196228D01*
X82409000Y-71196228D01*
X82409000Y-71363771D01*
X82441682Y-71528074D01*
X82441684Y-71528082D01*
X82505795Y-71682860D01*
X82598873Y-71822162D01*
X82717337Y-71940626D01*
X82809994Y-72002537D01*
X82856637Y-72033703D01*
X83011418Y-72097816D01*
X83151657Y-72125711D01*
X83175728Y-72130499D01*
X83175732Y-72130500D01*
X83175733Y-72130500D01*
X83343268Y-72130500D01*
X83343269Y-72130499D01*
X83507582Y-72097816D01*
X83662363Y-72033703D01*
X83801662Y-71940626D01*
X83920126Y-71822162D01*
X84013203Y-71682863D01*
X84077316Y-71528082D01*
X84110000Y-71363767D01*
X84110000Y-71196233D01*
X84077316Y-71031918D01*
X84013203Y-70877137D01*
X83982037Y-70830494D01*
X83920126Y-70737837D01*
X83801662Y-70619373D01*
X83662360Y-70526295D01*
X83507582Y-70462184D01*
X83507574Y-70462182D01*
X83343271Y-70429500D01*
X83343267Y-70429500D01*
X83175733Y-70429500D01*
X83175728Y-70429500D01*
X83011425Y-70462182D01*
X83011417Y-70462184D01*
X82856639Y-70526295D01*
X82717337Y-70619373D01*
X82598873Y-70737837D01*
X82505795Y-70877139D01*
X82441684Y-71031917D01*
X82441682Y-71031925D01*
X82409000Y-71196228D01*
X81609999Y-71196228D01*
X81577316Y-71031918D01*
X81513203Y-70877137D01*
X81482037Y-70830494D01*
X81420126Y-70737837D01*
X81301662Y-70619373D01*
X81162360Y-70526295D01*
X81007582Y-70462184D01*
X81007574Y-70462182D01*
X80843271Y-70429500D01*
X80843267Y-70429500D01*
X80675733Y-70429500D01*
X80675728Y-70429500D01*
X80511425Y-70462182D01*
X80511417Y-70462184D01*
X80356639Y-70526295D01*
X80217337Y-70619373D01*
X80098873Y-70737837D01*
X80005795Y-70877139D01*
X79941684Y-71031917D01*
X79941682Y-71031925D01*
X79909000Y-71196228D01*
X79260000Y-71196228D01*
X79260000Y-69706204D01*
X79259979Y-69705881D01*
X79259979Y-68274557D01*
X79260052Y-68274284D01*
X79259979Y-68209041D01*
X79259979Y-68143060D01*
X79259979Y-68135620D01*
X79259894Y-68134363D01*
X79243933Y-53868691D01*
X79243934Y-53868689D01*
X79243864Y-53806553D01*
X79244082Y-53799071D01*
X79247526Y-53741103D01*
X79261328Y-53508755D01*
X79263116Y-53493908D01*
X79314579Y-53211505D01*
X79318151Y-53196957D01*
X79318658Y-53195327D01*
X79403299Y-52922832D01*
X79408594Y-52908832D01*
X79526196Y-52646955D01*
X79533131Y-52633718D01*
X79681455Y-52387952D01*
X79689955Y-52375620D01*
X79866834Y-52149547D01*
X79876756Y-52138332D01*
X80079624Y-51935234D01*
X80090817Y-51925308D01*
X80316692Y-51748170D01*
X80329020Y-51739654D01*
X80354391Y-51724303D01*
X80574610Y-51591056D01*
X80587848Y-51584102D01*
X80849598Y-51466200D01*
X80863571Y-51460897D01*
X81137617Y-51375433D01*
X81152143Y-51371849D01*
X81434493Y-51320065D01*
X81449364Y-51318259D01*
X81726866Y-51301458D01*
X81738940Y-51300727D01*
X81746434Y-51300500D01*
X93975803Y-51300500D01*
X94037464Y-51301537D01*
X94041612Y-51300500D01*
X94045892Y-51300500D01*
X94104610Y-51284765D01*
X94106405Y-51284300D01*
X96028806Y-50803702D01*
X96058880Y-50800000D01*
X96892599Y-50800000D01*
X96959638Y-50819685D01*
G37*
%TD.AperFunction*%
%TA.AperFunction,Conductor*%
G36*
X101485603Y-125486184D02*
G01*
X101492081Y-125492216D01*
X101550125Y-125550260D01*
X101583610Y-125611583D01*
X101584061Y-125613749D01*
X101614961Y-125769091D01*
X101614964Y-125769101D01*
X101675302Y-125914772D01*
X101675309Y-125914785D01*
X101762910Y-126045888D01*
X101762913Y-126045892D01*
X101874407Y-126157386D01*
X101874411Y-126157389D01*
X102005514Y-126244990D01*
X102005527Y-126244997D01*
X102142174Y-126301597D01*
X102151203Y-126305337D01*
X102286091Y-126332168D01*
X102348002Y-126364552D01*
X102382576Y-126425268D01*
X102385900Y-126453785D01*
X102385900Y-129416000D01*
X102366215Y-129483039D01*
X102313411Y-129528794D01*
X102261900Y-129540000D01*
X99533369Y-129540000D01*
X99466330Y-129520315D01*
X99420575Y-129467511D01*
X99410631Y-129398353D01*
X99430267Y-129347109D01*
X99453126Y-129312898D01*
X99477594Y-129276279D01*
X99537937Y-129130597D01*
X99568700Y-128975942D01*
X99568700Y-128818258D01*
X99568700Y-128818255D01*
X99568699Y-128818253D01*
X99558195Y-128765446D01*
X99537937Y-128663603D01*
X99515326Y-128609014D01*
X99477597Y-128517927D01*
X99477590Y-128517914D01*
X99399898Y-128401640D01*
X99379020Y-128334962D01*
X99379000Y-128332749D01*
X99379000Y-125639897D01*
X99385238Y-125618651D01*
X99386818Y-125596563D01*
X99394890Y-125585779D01*
X99398685Y-125572858D01*
X99415418Y-125558358D01*
X99428690Y-125540630D01*
X99441310Y-125535922D01*
X99451489Y-125527103D01*
X99473406Y-125523951D01*
X99494154Y-125516213D01*
X99507314Y-125519075D01*
X99520647Y-125517159D01*
X99540790Y-125526358D01*
X99562427Y-125531065D01*
X99580152Y-125544333D01*
X99584203Y-125546184D01*
X99590681Y-125552216D01*
X99645325Y-125606860D01*
X99678810Y-125668183D01*
X99679261Y-125670349D01*
X99710161Y-125825691D01*
X99710164Y-125825701D01*
X99770502Y-125971372D01*
X99770509Y-125971385D01*
X99858110Y-126102488D01*
X99858113Y-126102492D01*
X99969607Y-126213986D01*
X99969611Y-126213989D01*
X100100714Y-126301590D01*
X100100727Y-126301597D01*
X100184026Y-126336100D01*
X100246403Y-126361937D01*
X100401053Y-126392699D01*
X100401056Y-126392700D01*
X100401058Y-126392700D01*
X100558744Y-126392700D01*
X100558745Y-126392699D01*
X100713397Y-126361937D01*
X100850043Y-126305337D01*
X100859072Y-126301597D01*
X100859072Y-126301596D01*
X100859079Y-126301594D01*
X100990189Y-126213989D01*
X101101689Y-126102489D01*
X101189294Y-125971379D01*
X101249637Y-125825697D01*
X101280400Y-125671042D01*
X101280400Y-125579897D01*
X101300085Y-125512858D01*
X101352889Y-125467103D01*
X101422047Y-125457159D01*
X101485603Y-125486184D01*
G37*
%TD.AperFunction*%
%TA.AperFunction,Conductor*%
G36*
X121164203Y-97428484D02*
G01*
X121170681Y-97434516D01*
X127633181Y-103897016D01*
X127666666Y-103958339D01*
X127669500Y-103984697D01*
X127669500Y-129416000D01*
X127649815Y-129483039D01*
X127597011Y-129528794D01*
X127545500Y-129540000D01*
X124464132Y-129540000D01*
X124397093Y-129520315D01*
X124351338Y-129467511D01*
X124341394Y-129398353D01*
X124370419Y-129334797D01*
X124395242Y-129312897D01*
X124401989Y-129308389D01*
X124513489Y-129196889D01*
X124601094Y-129065779D01*
X124611130Y-129041551D01*
X124614767Y-129032766D01*
X124661437Y-128920097D01*
X124692200Y-128765442D01*
X124692200Y-128607758D01*
X124692200Y-128607755D01*
X124692199Y-128607753D01*
X124689432Y-128593841D01*
X124661437Y-128453103D01*
X124658575Y-128446194D01*
X124601097Y-128307427D01*
X124601090Y-128307414D01*
X124513098Y-128175725D01*
X124492220Y-128109047D01*
X124492200Y-128106834D01*
X124492200Y-102958945D01*
X124492200Y-102958943D01*
X124451277Y-102806216D01*
X124451277Y-102806215D01*
X124408269Y-102731723D01*
X124372220Y-102669284D01*
X124260416Y-102557480D01*
X124260415Y-102557479D01*
X124256085Y-102553149D01*
X124256074Y-102553139D01*
X122279874Y-100576939D01*
X122246389Y-100515616D01*
X122245938Y-100513449D01*
X122223964Y-100402981D01*
X122215037Y-100358103D01*
X122215035Y-100358098D01*
X122154697Y-100212427D01*
X122154690Y-100212414D01*
X122067089Y-100081311D01*
X122067086Y-100081307D01*
X121955592Y-99969813D01*
X121955588Y-99969810D01*
X121824485Y-99882209D01*
X121824472Y-99882202D01*
X121678801Y-99821864D01*
X121678791Y-99821861D01*
X121523449Y-99790961D01*
X121461538Y-99758576D01*
X121459960Y-99757025D01*
X120995319Y-99292384D01*
X120961834Y-99231061D01*
X120959000Y-99204703D01*
X120959000Y-97522197D01*
X120978685Y-97455158D01*
X121031489Y-97409403D01*
X121100647Y-97399459D01*
X121164203Y-97428484D01*
G37*
%TD.AperFunction*%
%TA.AperFunction,Conductor*%
G36*
X132692539Y-50819685D02*
G01*
X132738294Y-50872489D01*
X132749500Y-50924000D01*
X132749500Y-78474602D01*
X132729815Y-78541641D01*
X132713181Y-78562283D01*
X126585739Y-84689725D01*
X126524416Y-84723210D01*
X126522250Y-84723661D01*
X126366908Y-84754561D01*
X126366898Y-84754564D01*
X126221227Y-84814902D01*
X126221214Y-84814909D01*
X126090111Y-84902510D01*
X126090107Y-84902513D01*
X125978613Y-85014007D01*
X125978610Y-85014011D01*
X125891009Y-85145114D01*
X125891002Y-85145127D01*
X125830664Y-85290798D01*
X125830661Y-85290810D01*
X125799900Y-85445453D01*
X125799900Y-85603146D01*
X125830661Y-85757789D01*
X125830664Y-85757801D01*
X125891002Y-85903472D01*
X125891009Y-85903485D01*
X125978610Y-86034588D01*
X125978613Y-86034592D01*
X126090107Y-86146086D01*
X126090111Y-86146089D01*
X126221214Y-86233690D01*
X126221227Y-86233697D01*
X126366898Y-86294035D01*
X126366903Y-86294037D01*
X126483773Y-86317284D01*
X126521553Y-86324799D01*
X126521556Y-86324800D01*
X126521558Y-86324800D01*
X126679243Y-86324800D01*
X126717027Y-86317284D01*
X126796995Y-86301377D01*
X126866585Y-86307604D01*
X126921763Y-86350466D01*
X126945008Y-86416356D01*
X126928941Y-86484353D01*
X126878662Y-86532869D01*
X126877482Y-86533478D01*
X126811142Y-86567280D01*
X126811126Y-86567289D01*
X126437257Y-86796397D01*
X126437246Y-86796405D01*
X126082487Y-87054151D01*
X126082473Y-87054161D01*
X125749036Y-87338945D01*
X125749022Y-87338958D01*
X125438958Y-87649022D01*
X125438945Y-87649036D01*
X125154161Y-87982473D01*
X125154151Y-87982487D01*
X124896405Y-88337246D01*
X124896397Y-88337257D01*
X124667289Y-88711126D01*
X124667286Y-88711131D01*
X124468197Y-89101867D01*
X124468191Y-89101880D01*
X124300380Y-89507008D01*
X124164878Y-89924046D01*
X124164871Y-89924069D01*
X124062503Y-90350460D01*
X123993905Y-90783574D01*
X123993905Y-90783575D01*
X123959500Y-91220736D01*
X123959500Y-91659263D01*
X123993905Y-92096424D01*
X123993905Y-92096425D01*
X124062503Y-92529539D01*
X124144654Y-92871722D01*
X124164874Y-92955942D01*
X124164878Y-92955953D01*
X124300380Y-93372991D01*
X124468191Y-93778119D01*
X124468197Y-93778133D01*
X124667279Y-94168855D01*
X124667286Y-94168868D01*
X124667289Y-94168873D01*
X124896397Y-94542742D01*
X124896405Y-94542753D01*
X125154151Y-94897512D01*
X125154161Y-94897526D01*
X125425710Y-95215467D01*
X125438951Y-95230970D01*
X125749030Y-95541049D01*
X125749036Y-95541054D01*
X126082473Y-95825838D01*
X126082480Y-95825843D01*
X126437248Y-96083596D01*
X126437252Y-96083598D01*
X126437257Y-96083602D01*
X126811126Y-96312710D01*
X126811131Y-96312713D01*
X126811136Y-96312715D01*
X126811145Y-96312721D01*
X127201867Y-96511803D01*
X127592366Y-96673554D01*
X127607008Y-96679619D01*
X127653325Y-96694668D01*
X128024058Y-96815126D01*
X128450458Y-96917496D01*
X128883576Y-96986095D01*
X129320742Y-97020500D01*
X129320750Y-97020500D01*
X129759250Y-97020500D01*
X129759258Y-97020500D01*
X130196424Y-96986095D01*
X130629542Y-96917496D01*
X131055942Y-96815126D01*
X131472997Y-96679617D01*
X131878133Y-96511803D01*
X132268855Y-96312721D01*
X132642752Y-96083596D01*
X132997520Y-95825843D01*
X133330970Y-95541049D01*
X133641049Y-95230970D01*
X133925843Y-94897520D01*
X134183596Y-94542752D01*
X134412721Y-94168855D01*
X134611803Y-93778133D01*
X134779617Y-93372997D01*
X134915126Y-92955942D01*
X135017496Y-92529542D01*
X135086095Y-92096424D01*
X135120500Y-91659258D01*
X135120500Y-91220742D01*
X135086095Y-90783576D01*
X135017496Y-90350458D01*
X134915126Y-89924058D01*
X134779617Y-89507003D01*
X134611803Y-89101867D01*
X134412721Y-88711145D01*
X134412715Y-88711136D01*
X134412713Y-88711131D01*
X134412710Y-88711126D01*
X134183602Y-88337257D01*
X134183598Y-88337252D01*
X134183596Y-88337248D01*
X133925843Y-87982480D01*
X133925838Y-87982473D01*
X133659356Y-87670465D01*
X133641049Y-87649030D01*
X133330970Y-87338951D01*
X133330963Y-87338945D01*
X132997526Y-87054161D01*
X132997512Y-87054151D01*
X132829473Y-86932064D01*
X132642752Y-86796404D01*
X132642749Y-86796402D01*
X132642742Y-86796397D01*
X132268873Y-86567289D01*
X132268868Y-86567286D01*
X132268858Y-86567281D01*
X132268855Y-86567279D01*
X131878133Y-86368197D01*
X131878119Y-86368191D01*
X131472991Y-86200380D01*
X131176256Y-86103966D01*
X131055942Y-86064874D01*
X131055930Y-86064871D01*
X130629539Y-85962503D01*
X130196425Y-85893905D01*
X129759263Y-85859500D01*
X129759258Y-85859500D01*
X129320742Y-85859500D01*
X129320736Y-85859500D01*
X128883575Y-85893905D01*
X128883574Y-85893905D01*
X128450460Y-85962503D01*
X128024069Y-86064871D01*
X128024063Y-86064872D01*
X128024058Y-86064874D01*
X128024046Y-86064878D01*
X127607008Y-86200380D01*
X127242993Y-86351161D01*
X127173523Y-86358630D01*
X127111044Y-86327355D01*
X127075392Y-86267266D01*
X127077886Y-86197441D01*
X127107859Y-86148918D01*
X127110685Y-86146091D01*
X127110689Y-86146089D01*
X127222189Y-86034589D01*
X127309794Y-85903479D01*
X127370137Y-85757797D01*
X127391019Y-85652815D01*
X127401038Y-85602450D01*
X127433423Y-85540539D01*
X127434918Y-85539016D01*
X130045719Y-82928216D01*
X130107042Y-82894731D01*
X130176734Y-82899715D01*
X130221081Y-82928216D01*
X135712681Y-88419816D01*
X135746166Y-88481139D01*
X135749000Y-88507497D01*
X135749000Y-125818902D01*
X135729315Y-125885941D01*
X135712681Y-125906583D01*
X132869481Y-128749782D01*
X132869479Y-128749784D01*
X132848750Y-128785688D01*
X132839989Y-128800865D01*
X132790423Y-128886715D01*
X132749499Y-129039443D01*
X132749499Y-129039445D01*
X132749499Y-129207546D01*
X132749500Y-129207559D01*
X132749500Y-129416000D01*
X132729815Y-129483039D01*
X132677011Y-129528794D01*
X132625500Y-129540000D01*
X131719200Y-129540000D01*
X131652161Y-129520315D01*
X131606406Y-129467511D01*
X131595200Y-129416000D01*
X131595200Y-100860760D01*
X131595201Y-100860747D01*
X131595201Y-100692645D01*
X131595201Y-100692643D01*
X131554277Y-100539915D01*
X131475220Y-100402984D01*
X130565073Y-99492837D01*
X130531588Y-99431514D01*
X130531137Y-99429347D01*
X130500238Y-99274010D01*
X130500237Y-99274003D01*
X130482450Y-99231061D01*
X130439897Y-99128327D01*
X130439890Y-99128314D01*
X130352289Y-98997211D01*
X130352286Y-98997207D01*
X130240792Y-98885713D01*
X130240788Y-98885710D01*
X130109685Y-98798109D01*
X130109672Y-98798102D01*
X129964001Y-98737764D01*
X129963989Y-98737761D01*
X129809345Y-98707000D01*
X129809342Y-98707000D01*
X129651658Y-98707000D01*
X129651655Y-98707000D01*
X129497010Y-98737761D01*
X129496998Y-98737764D01*
X129351327Y-98798102D01*
X129351314Y-98798109D01*
X129219625Y-98886102D01*
X129152947Y-98906980D01*
X129150734Y-98907000D01*
X128054097Y-98907000D01*
X127987058Y-98887315D01*
X127966416Y-98870681D01*
X123494519Y-94398784D01*
X123461034Y-94337461D01*
X123458200Y-94311103D01*
X123458200Y-65193597D01*
X123477885Y-65126558D01*
X123494519Y-65105916D01*
X127373680Y-61226755D01*
X131290520Y-57309916D01*
X131369577Y-57172984D01*
X131410501Y-57020257D01*
X131410501Y-56862142D01*
X131410501Y-56854547D01*
X131410500Y-56854529D01*
X131410500Y-50924000D01*
X131430185Y-50856961D01*
X131482989Y-50811206D01*
X131534500Y-50800000D01*
X132625500Y-50800000D01*
X132692539Y-50819685D01*
G37*
%TD.AperFunction*%
%TA.AperFunction,Conductor*%
G36*
X152532034Y-97339714D02*
G01*
X152587967Y-97381586D01*
X152612384Y-97447050D01*
X152612700Y-97455896D01*
X152612700Y-128105234D01*
X152593015Y-128172273D01*
X152591802Y-128174125D01*
X152503809Y-128305814D01*
X152503802Y-128305827D01*
X152443464Y-128451498D01*
X152443461Y-128451510D01*
X152412700Y-128606153D01*
X152412700Y-128763846D01*
X152443461Y-128918489D01*
X152443464Y-128918501D01*
X152503802Y-129064172D01*
X152503809Y-129064185D01*
X152591410Y-129195288D01*
X152591413Y-129195292D01*
X152702907Y-129306786D01*
X152702910Y-129306788D01*
X152702911Y-129306789D01*
X152712054Y-129312898D01*
X152756858Y-129366511D01*
X152765565Y-129435836D01*
X152735410Y-129498863D01*
X152675967Y-129535582D01*
X152643162Y-129540000D01*
X150438338Y-129540000D01*
X150371299Y-129520315D01*
X150325544Y-129467511D01*
X150315600Y-129398353D01*
X150344625Y-129334797D01*
X150369446Y-129312898D01*
X150378589Y-129306789D01*
X150490089Y-129195289D01*
X150577694Y-129064179D01*
X150638037Y-128918497D01*
X150668800Y-128763842D01*
X150668800Y-128606158D01*
X150668800Y-128606155D01*
X150668799Y-128606153D01*
X150660386Y-128563857D01*
X150638037Y-128451503D01*
X150586714Y-128327597D01*
X150577697Y-128305827D01*
X150577690Y-128305814D01*
X150490089Y-128174711D01*
X150490086Y-128174707D01*
X150378592Y-128063213D01*
X150378588Y-128063210D01*
X150247485Y-127975609D01*
X150247472Y-127975602D01*
X150101801Y-127915264D01*
X150101789Y-127915261D01*
X149947145Y-127884500D01*
X149947142Y-127884500D01*
X149789458Y-127884500D01*
X149789455Y-127884500D01*
X149634810Y-127915261D01*
X149634798Y-127915264D01*
X149489127Y-127975602D01*
X149489114Y-127975609D01*
X149358011Y-128063210D01*
X149358007Y-128063213D01*
X149246513Y-128174707D01*
X149246510Y-128174711D01*
X149158909Y-128305814D01*
X149158902Y-128305827D01*
X149098564Y-128451498D01*
X149098561Y-128451508D01*
X149067661Y-128606850D01*
X149035276Y-128668761D01*
X149033725Y-128670339D01*
X148569019Y-129135045D01*
X148507696Y-129168530D01*
X148438004Y-129163546D01*
X148382071Y-129121674D01*
X148357654Y-129056210D01*
X148366777Y-128999912D01*
X148392249Y-128938416D01*
X148399837Y-128920097D01*
X148430600Y-128765442D01*
X148430600Y-128607758D01*
X148430600Y-128607755D01*
X148430599Y-128607753D01*
X148427832Y-128593841D01*
X148399837Y-128453103D01*
X148396975Y-128446194D01*
X148339497Y-128307427D01*
X148339490Y-128307414D01*
X148251889Y-128176311D01*
X148251886Y-128176307D01*
X148140392Y-128064813D01*
X148083908Y-128027071D01*
X148039104Y-127973458D01*
X148028800Y-127923969D01*
X148028800Y-113617398D01*
X148035038Y-113596152D01*
X148036618Y-113574065D01*
X148044690Y-113563281D01*
X148048485Y-113550359D01*
X148065216Y-113535860D01*
X148078489Y-113518131D01*
X148091111Y-113513423D01*
X148101289Y-113504604D01*
X148123204Y-113501452D01*
X148143953Y-113493714D01*
X148157114Y-113496576D01*
X148170447Y-113494660D01*
X148190588Y-113503858D01*
X148212226Y-113508565D01*
X148229952Y-113521835D01*
X148234003Y-113523685D01*
X148240466Y-113529702D01*
X148315184Y-113604420D01*
X148315186Y-113604421D01*
X148322256Y-113611491D01*
X148565922Y-113855157D01*
X148599407Y-113916480D01*
X148596173Y-113981155D01*
X148591522Y-113995468D01*
X148559500Y-114197648D01*
X148559500Y-114402351D01*
X148591522Y-114604534D01*
X148654781Y-114799223D01*
X148747715Y-114981613D01*
X148868028Y-115147213D01*
X149012786Y-115291971D01*
X149167349Y-115404265D01*
X149178390Y-115412287D01*
X149294607Y-115471503D01*
X149360776Y-115505218D01*
X149360778Y-115505218D01*
X149360781Y-115505220D01*
X149399157Y-115517689D01*
X149555465Y-115568477D01*
X149589976Y-115573943D01*
X149757648Y-115600500D01*
X149757649Y-115600500D01*
X149962351Y-115600500D01*
X149962352Y-115600500D01*
X150164534Y-115568477D01*
X150359219Y-115505220D01*
X150541610Y-115412287D01*
X150671477Y-115317934D01*
X150707213Y-115291971D01*
X150707215Y-115291968D01*
X150707219Y-115291966D01*
X150851966Y-115147219D01*
X150851968Y-115147215D01*
X150851971Y-115147213D01*
X150963168Y-114994161D01*
X150972287Y-114981610D01*
X151065220Y-114799219D01*
X151128477Y-114604534D01*
X151160500Y-114402352D01*
X151160500Y-114197648D01*
X151151430Y-114140383D01*
X151128477Y-113995465D01*
X151082888Y-113855157D01*
X151065220Y-113800781D01*
X151065218Y-113800778D01*
X151065218Y-113800776D01*
X151026905Y-113725584D01*
X150972287Y-113618390D01*
X150956130Y-113596152D01*
X150851971Y-113452786D01*
X150707213Y-113308028D01*
X150541613Y-113187715D01*
X150541612Y-113187714D01*
X150541610Y-113187713D01*
X150484653Y-113158691D01*
X150359223Y-113094781D01*
X150164534Y-113031522D01*
X149989995Y-113003878D01*
X149962352Y-112999500D01*
X149757648Y-112999500D01*
X149726528Y-113004429D01*
X149555468Y-113031522D01*
X149546717Y-113034365D01*
X149541154Y-113036173D01*
X149525940Y-113036607D01*
X149511683Y-113041925D01*
X149491728Y-113037584D01*
X149471313Y-113038167D01*
X149457226Y-113030078D01*
X149443411Y-113027073D01*
X149415161Y-113005925D01*
X149320717Y-112911481D01*
X149287234Y-112850159D01*
X149284400Y-112823802D01*
X149284400Y-100411073D01*
X149304085Y-100344034D01*
X149356889Y-100298279D01*
X149426047Y-100288335D01*
X149446708Y-100293139D01*
X149527811Y-100319491D01*
X149555465Y-100328477D01*
X149631520Y-100340523D01*
X149757648Y-100360500D01*
X149757649Y-100360500D01*
X149962351Y-100360500D01*
X149962352Y-100360500D01*
X150164534Y-100328477D01*
X150359219Y-100265220D01*
X150541610Y-100172287D01*
X150666829Y-100081311D01*
X150707213Y-100051971D01*
X150707215Y-100051968D01*
X150707219Y-100051966D01*
X150851966Y-99907219D01*
X150851968Y-99907215D01*
X150851971Y-99907213D01*
X150904732Y-99834590D01*
X150972287Y-99741610D01*
X151065220Y-99559219D01*
X151128477Y-99364534D01*
X151160500Y-99162352D01*
X151160500Y-98957648D01*
X151128477Y-98755466D01*
X151123825Y-98741151D01*
X151121832Y-98671312D01*
X151154075Y-98615158D01*
X152401020Y-97368213D01*
X152462342Y-97334730D01*
X152532034Y-97339714D01*
G37*
%TD.AperFunction*%
%TA.AperFunction,Conductor*%
G36*
X160029098Y-50801073D02*
G01*
X160032814Y-50800219D01*
X160062366Y-50810842D01*
X160092480Y-50819685D01*
X160096017Y-50822939D01*
X160098564Y-50823855D01*
X160123816Y-50848513D01*
X160127499Y-50853313D01*
X160146597Y-50872411D01*
X160156796Y-50883964D01*
X160173383Y-50905290D01*
X160198455Y-50924269D01*
X160220686Y-50946500D01*
X160250761Y-50963863D01*
X160256918Y-50968524D01*
X160256919Y-50968526D01*
X160278450Y-50984825D01*
X160278461Y-50984831D01*
X160299674Y-50993455D01*
X160314974Y-51000938D01*
X160334813Y-51012392D01*
X160342360Y-51014413D01*
X160368363Y-51021381D01*
X160400537Y-51034462D01*
X160431735Y-51038361D01*
X160462108Y-51046500D01*
X160489125Y-51046500D01*
X160504505Y-51047458D01*
X162463737Y-51292362D01*
X162494108Y-51300500D01*
X162528839Y-51300500D01*
X162547223Y-51302798D01*
X162563300Y-51304808D01*
X162563301Y-51304807D01*
X162563303Y-51304808D01*
X162581996Y-51302222D01*
X162585998Y-51301669D01*
X162602986Y-51300500D01*
X174734108Y-51300500D01*
X174796249Y-51300500D01*
X174803736Y-51300726D01*
X175093796Y-51318271D01*
X175108657Y-51320075D01*
X175156995Y-51328934D01*
X175390798Y-51371780D01*
X175405335Y-51375363D01*
X175679172Y-51460695D01*
X175693163Y-51466000D01*
X175954743Y-51583727D01*
X175967989Y-51590680D01*
X176213465Y-51739075D01*
X176225776Y-51747573D01*
X176381978Y-51869949D01*
X176451573Y-51924473D01*
X176462781Y-51934403D01*
X176665596Y-52137218D01*
X176675526Y-52148426D01*
X176703117Y-52183643D01*
X176849340Y-52370284D01*
X176852422Y-52374217D01*
X176860926Y-52386537D01*
X176945053Y-52525700D01*
X177009316Y-52632004D01*
X177016275Y-52645263D01*
X177133997Y-52906831D01*
X177139306Y-52920832D01*
X177224635Y-53194663D01*
X177228219Y-53209201D01*
X177279923Y-53491340D01*
X177281728Y-53506205D01*
X177299274Y-53796263D01*
X177299500Y-53803750D01*
X177299500Y-129540000D01*
X160452497Y-129540000D01*
X160385458Y-129520315D01*
X160339703Y-129467511D01*
X160329759Y-129398353D01*
X160358784Y-129334797D01*
X160364816Y-129328319D01*
X161109826Y-128583309D01*
X161858562Y-127834572D01*
X161919883Y-127801089D01*
X161922050Y-127800638D01*
X161999001Y-127785331D01*
X162077397Y-127769737D01*
X162193471Y-127721658D01*
X162223072Y-127709397D01*
X162223072Y-127709396D01*
X162223079Y-127709394D01*
X162354189Y-127621789D01*
X162465689Y-127510289D01*
X162553294Y-127379179D01*
X162613637Y-127233497D01*
X162644400Y-127078842D01*
X162644400Y-126921158D01*
X162644400Y-126921155D01*
X162644399Y-126921153D01*
X162613637Y-126766503D01*
X162591428Y-126712885D01*
X162553297Y-126620827D01*
X162553290Y-126620814D01*
X162465689Y-126489711D01*
X162465686Y-126489707D01*
X162354192Y-126378213D01*
X162354188Y-126378210D01*
X162223085Y-126290609D01*
X162223072Y-126290602D01*
X162077401Y-126230264D01*
X162077389Y-126230261D01*
X161922745Y-126199500D01*
X161922742Y-126199500D01*
X161765058Y-126199500D01*
X161765055Y-126199500D01*
X161610410Y-126230261D01*
X161610398Y-126230264D01*
X161464727Y-126290602D01*
X161464714Y-126290609D01*
X161333611Y-126378210D01*
X161333607Y-126378213D01*
X161222113Y-126489707D01*
X161222110Y-126489711D01*
X161134509Y-126620814D01*
X161134502Y-126620827D01*
X161074164Y-126766498D01*
X161074161Y-126766508D01*
X161043261Y-126921850D01*
X161010876Y-126983761D01*
X161009325Y-126985339D01*
X159562181Y-128432484D01*
X159500858Y-128465969D01*
X159431166Y-128460985D01*
X159375233Y-128419113D01*
X159350816Y-128353649D01*
X159350500Y-128344803D01*
X159350500Y-119160736D01*
X162059500Y-119160736D01*
X162059500Y-119599263D01*
X162093905Y-120036424D01*
X162093905Y-120036425D01*
X162162503Y-120469539D01*
X162244597Y-120811482D01*
X162264874Y-120895942D01*
X162282470Y-120950097D01*
X162400380Y-121312991D01*
X162568191Y-121718119D01*
X162568197Y-121718133D01*
X162767279Y-122108855D01*
X162767286Y-122108868D01*
X162767289Y-122108873D01*
X162996397Y-122482742D01*
X162996405Y-122482753D01*
X163254151Y-122837512D01*
X163254161Y-122837526D01*
X163538945Y-123170963D01*
X163538951Y-123170970D01*
X163849030Y-123481049D01*
X163849036Y-123481054D01*
X164182473Y-123765838D01*
X164182480Y-123765843D01*
X164537248Y-124023596D01*
X164537252Y-124023598D01*
X164537257Y-124023602D01*
X164911126Y-124252710D01*
X164911131Y-124252713D01*
X164911136Y-124252715D01*
X164911145Y-124252721D01*
X165301867Y-124451803D01*
X165628655Y-124587164D01*
X165707008Y-124619619D01*
X165813050Y-124654073D01*
X166124058Y-124755126D01*
X166550458Y-124857496D01*
X166983576Y-124926095D01*
X167420742Y-124960500D01*
X167420750Y-124960500D01*
X167859250Y-124960500D01*
X167859258Y-124960500D01*
X168296424Y-124926095D01*
X168729542Y-124857496D01*
X169155942Y-124755126D01*
X169572997Y-124619617D01*
X169978133Y-124451803D01*
X170368855Y-124252721D01*
X170742752Y-124023596D01*
X171097520Y-123765843D01*
X171430970Y-123481049D01*
X171741049Y-123170970D01*
X172025843Y-122837520D01*
X172283596Y-122482752D01*
X172512721Y-122108855D01*
X172711803Y-121718133D01*
X172879617Y-121312997D01*
X173015126Y-120895942D01*
X173117496Y-120469542D01*
X173186095Y-120036424D01*
X173220500Y-119599258D01*
X173220500Y-119160742D01*
X173186095Y-118723576D01*
X173117496Y-118290458D01*
X173015126Y-117864058D01*
X172879617Y-117447003D01*
X172711803Y-117041867D01*
X172512721Y-116651145D01*
X172512715Y-116651136D01*
X172512713Y-116651131D01*
X172512710Y-116651126D01*
X172283602Y-116277257D01*
X172283598Y-116277252D01*
X172283596Y-116277248D01*
X172025843Y-115922480D01*
X172025838Y-115922473D01*
X171743026Y-115591345D01*
X171741049Y-115589030D01*
X171430970Y-115278951D01*
X171430963Y-115278945D01*
X171097526Y-114994161D01*
X171097512Y-114994151D01*
X170884897Y-114839678D01*
X170742752Y-114736404D01*
X170742749Y-114736402D01*
X170742742Y-114736397D01*
X170368873Y-114507289D01*
X170368868Y-114507286D01*
X170368858Y-114507281D01*
X170368855Y-114507279D01*
X169978133Y-114308197D01*
X169978119Y-114308191D01*
X169572991Y-114140380D01*
X169276256Y-114043966D01*
X169155942Y-114004874D01*
X169155930Y-114004871D01*
X168729539Y-113902503D01*
X168296425Y-113833905D01*
X167859263Y-113799500D01*
X167859258Y-113799500D01*
X167420742Y-113799500D01*
X167420736Y-113799500D01*
X166983575Y-113833905D01*
X166983574Y-113833905D01*
X166550460Y-113902503D01*
X166124069Y-114004871D01*
X166124063Y-114004872D01*
X166124058Y-114004874D01*
X166124046Y-114004878D01*
X165707008Y-114140380D01*
X165301880Y-114308191D01*
X165301867Y-114308197D01*
X164911131Y-114507286D01*
X164911126Y-114507289D01*
X164537257Y-114736397D01*
X164537246Y-114736405D01*
X164182487Y-114994151D01*
X164182473Y-114994161D01*
X163849036Y-115278945D01*
X163849022Y-115278958D01*
X163538958Y-115589022D01*
X163538945Y-115589036D01*
X163254161Y-115922473D01*
X163254151Y-115922487D01*
X162996405Y-116277246D01*
X162996397Y-116277257D01*
X162767289Y-116651126D01*
X162767286Y-116651131D01*
X162568197Y-117041867D01*
X162568191Y-117041880D01*
X162400380Y-117447008D01*
X162264878Y-117864046D01*
X162264871Y-117864069D01*
X162162503Y-118290460D01*
X162093905Y-118723574D01*
X162093905Y-118723575D01*
X162059500Y-119160736D01*
X159350500Y-119160736D01*
X159350500Y-97753937D01*
X159370185Y-97686898D01*
X159422989Y-97641143D01*
X159492147Y-97631199D01*
X159555703Y-97660224D01*
X159579494Y-97687965D01*
X159630384Y-97768956D01*
X159736687Y-97902257D01*
X160378247Y-97260697D01*
X160452088Y-97362330D01*
X160630170Y-97540412D01*
X160731800Y-97614251D01*
X160090241Y-98255810D01*
X160090241Y-98255811D01*
X160223543Y-98362115D01*
X160461299Y-98511507D01*
X160714282Y-98633337D01*
X160979319Y-98726077D01*
X160979321Y-98726078D01*
X161253075Y-98788560D01*
X161253087Y-98788562D01*
X161532098Y-98819999D01*
X161532100Y-98820000D01*
X161812900Y-98820000D01*
X161812901Y-98819999D01*
X162091912Y-98788562D01*
X162091924Y-98788560D01*
X162365678Y-98726078D01*
X162365680Y-98726077D01*
X162630717Y-98633337D01*
X162883700Y-98511507D01*
X163121456Y-98362116D01*
X163254757Y-98255810D01*
X162613198Y-97614251D01*
X162714830Y-97540412D01*
X162892912Y-97362330D01*
X162966751Y-97260698D01*
X163608310Y-97902257D01*
X163714616Y-97768956D01*
X163864007Y-97531200D01*
X163985837Y-97278217D01*
X164078577Y-97013180D01*
X164078578Y-97013178D01*
X164141060Y-96739424D01*
X164141062Y-96739412D01*
X164172499Y-96460401D01*
X164172500Y-96460399D01*
X164172500Y-96179600D01*
X164172499Y-96179598D01*
X164141062Y-95900587D01*
X164141060Y-95900575D01*
X164078578Y-95626821D01*
X164078577Y-95626819D01*
X163985837Y-95361782D01*
X163864007Y-95108799D01*
X163714615Y-94871043D01*
X163608310Y-94737741D01*
X162966751Y-95379300D01*
X162892912Y-95277670D01*
X162714830Y-95099588D01*
X162613197Y-95025747D01*
X163254757Y-94384187D01*
X163121456Y-94277884D01*
X162883700Y-94128492D01*
X162630717Y-94006662D01*
X162365680Y-93913922D01*
X162365678Y-93913921D01*
X162091924Y-93851439D01*
X162091912Y-93851437D01*
X161812901Y-93820000D01*
X161532098Y-93820000D01*
X161253087Y-93851437D01*
X161253075Y-93851439D01*
X160979321Y-93913921D01*
X160979319Y-93913922D01*
X160714282Y-94006662D01*
X160461299Y-94128492D01*
X160223543Y-94277884D01*
X160090241Y-94384187D01*
X160731801Y-95025747D01*
X160630170Y-95099588D01*
X160452088Y-95277670D01*
X160378248Y-95379301D01*
X159736687Y-94737741D01*
X159630384Y-94871043D01*
X159579494Y-94952034D01*
X159527159Y-94998325D01*
X159458106Y-95008973D01*
X159394257Y-94980598D01*
X159355885Y-94922208D01*
X159350500Y-94886062D01*
X159350500Y-90784499D01*
X159370185Y-90717460D01*
X159422989Y-90671705D01*
X159474495Y-90660499D01*
X161100372Y-90660499D01*
X161159983Y-90654091D01*
X161294831Y-90603796D01*
X161410046Y-90517546D01*
X161496296Y-90402331D01*
X161546591Y-90267483D01*
X161553000Y-90207873D01*
X161552999Y-88512128D01*
X161546591Y-88452517D01*
X161540529Y-88436265D01*
X161496297Y-88317671D01*
X161496293Y-88317664D01*
X161410047Y-88202455D01*
X161410044Y-88202452D01*
X161294835Y-88116206D01*
X161294828Y-88116202D01*
X161159982Y-88065908D01*
X161159983Y-88065908D01*
X161100383Y-88059501D01*
X161100381Y-88059500D01*
X161100373Y-88059500D01*
X161100365Y-88059500D01*
X160721253Y-88059500D01*
X160654214Y-88039815D01*
X160608459Y-87987011D01*
X160598515Y-87917853D01*
X160627540Y-87854297D01*
X160682934Y-87817569D01*
X160751719Y-87795220D01*
X160934110Y-87702287D01*
X161031509Y-87631523D01*
X161099713Y-87581971D01*
X161099715Y-87581968D01*
X161099719Y-87581966D01*
X161244466Y-87437219D01*
X161244468Y-87437215D01*
X161244471Y-87437213D01*
X161306279Y-87352140D01*
X161364787Y-87271610D01*
X161457720Y-87089219D01*
X161520977Y-86894534D01*
X161553000Y-86692352D01*
X161553000Y-86487648D01*
X161552392Y-86483812D01*
X161520977Y-86285465D01*
X161476610Y-86148918D01*
X161457720Y-86090781D01*
X161457718Y-86090778D01*
X161457718Y-86090776D01*
X161410855Y-85998803D01*
X161364787Y-85908390D01*
X161348963Y-85886610D01*
X161244471Y-85742786D01*
X161099713Y-85598028D01*
X160934113Y-85477715D01*
X160934112Y-85477714D01*
X160934110Y-85477713D01*
X160870796Y-85445453D01*
X160751723Y-85384781D01*
X160561368Y-85322931D01*
X160503693Y-85283493D01*
X160476495Y-85219134D01*
X160488410Y-85150288D01*
X160535654Y-85098812D01*
X160561368Y-85087069D01*
X160604008Y-85073213D01*
X160751719Y-85025220D01*
X160934110Y-84932287D01*
X161027090Y-84864732D01*
X161099713Y-84811971D01*
X161099715Y-84811968D01*
X161099719Y-84811966D01*
X161244466Y-84667219D01*
X161244468Y-84667215D01*
X161244471Y-84667213D01*
X161341262Y-84533989D01*
X161364787Y-84501610D01*
X161457720Y-84319219D01*
X161520977Y-84124534D01*
X161553000Y-83922352D01*
X161553000Y-83717648D01*
X161520977Y-83515466D01*
X161520309Y-83513411D01*
X161457718Y-83320776D01*
X161405132Y-83217572D01*
X161364787Y-83138390D01*
X161348774Y-83116350D01*
X161244471Y-82972786D01*
X161099713Y-82828028D01*
X160934113Y-82707715D01*
X160934112Y-82707714D01*
X160934110Y-82707713D01*
X160877153Y-82678691D01*
X160751723Y-82614781D01*
X160561368Y-82552931D01*
X160503693Y-82513493D01*
X160476495Y-82449134D01*
X160488410Y-82380288D01*
X160535654Y-82328812D01*
X160561368Y-82317069D01*
X160614297Y-82299871D01*
X160751719Y-82255220D01*
X160934110Y-82162287D01*
X160977749Y-82130582D01*
X161099713Y-82041971D01*
X161099715Y-82041968D01*
X161099719Y-82041966D01*
X161244466Y-81897219D01*
X161244468Y-81897215D01*
X161244471Y-81897213D01*
X161348778Y-81753644D01*
X161364787Y-81731610D01*
X161457720Y-81549219D01*
X161520977Y-81354534D01*
X161553000Y-81152352D01*
X161553000Y-80947648D01*
X161551140Y-80935907D01*
X161520977Y-80745465D01*
X161464078Y-80570349D01*
X161457720Y-80550781D01*
X161457718Y-80550778D01*
X161457718Y-80550776D01*
X161420838Y-80478396D01*
X161364787Y-80368390D01*
X161309131Y-80291785D01*
X161244471Y-80202786D01*
X161099713Y-80058028D01*
X160934113Y-79937715D01*
X160934112Y-79937714D01*
X160934110Y-79937713D01*
X160844951Y-79892284D01*
X160751723Y-79844781D01*
X160561368Y-79782931D01*
X160503693Y-79743493D01*
X160476495Y-79679134D01*
X160488410Y-79610288D01*
X160532133Y-79562648D01*
X161792000Y-79562648D01*
X161792000Y-79767351D01*
X161824022Y-79969534D01*
X161887281Y-80164223D01*
X161940832Y-80269321D01*
X161976217Y-80338768D01*
X161980215Y-80346613D01*
X162100528Y-80512213D01*
X162245286Y-80656971D01*
X162400249Y-80769556D01*
X162410890Y-80777287D01*
X162593281Y-80870220D01*
X162739307Y-80917666D01*
X162784438Y-80932331D01*
X162842114Y-80971769D01*
X162869312Y-81036127D01*
X162857397Y-81104974D01*
X162810153Y-81156449D01*
X162784439Y-81168193D01*
X162593468Y-81230244D01*
X162411144Y-81323143D01*
X162366577Y-81355523D01*
X162366577Y-81355524D01*
X162963091Y-81952037D01*
X162899507Y-81969075D01*
X162785493Y-82034901D01*
X162692401Y-82127993D01*
X162626575Y-82242007D01*
X162609537Y-82305590D01*
X162013024Y-81709077D01*
X162013023Y-81709077D01*
X161980643Y-81753644D01*
X161887744Y-81935968D01*
X161824509Y-82130582D01*
X161792500Y-82332682D01*
X161792500Y-82537317D01*
X161824509Y-82739417D01*
X161887744Y-82934031D01*
X161980641Y-83116350D01*
X161980647Y-83116359D01*
X162013023Y-83160921D01*
X162013024Y-83160922D01*
X162609537Y-82564409D01*
X162626575Y-82627993D01*
X162692401Y-82742007D01*
X162785493Y-82835099D01*
X162899507Y-82900925D01*
X162963090Y-82917962D01*
X162366576Y-83514474D01*
X162411150Y-83546859D01*
X162593468Y-83639755D01*
X162784439Y-83701806D01*
X162842114Y-83741244D01*
X162869312Y-83805603D01*
X162857397Y-83874449D01*
X162810153Y-83925925D01*
X162784439Y-83937668D01*
X162593276Y-83999781D01*
X162410886Y-84092715D01*
X162245286Y-84213028D01*
X162100528Y-84357786D01*
X161980215Y-84523386D01*
X161887281Y-84705776D01*
X161824022Y-84900465D01*
X161792000Y-85102648D01*
X161792000Y-85307351D01*
X161824022Y-85509534D01*
X161887281Y-85704223D01*
X161914575Y-85757789D01*
X161967052Y-85860781D01*
X161980215Y-85886613D01*
X162100528Y-86052213D01*
X162245286Y-86196971D01*
X162397562Y-86307604D01*
X162410890Y-86317287D01*
X162527107Y-86376503D01*
X162593276Y-86410218D01*
X162593278Y-86410218D01*
X162593281Y-86410220D01*
X162672456Y-86435945D01*
X162783631Y-86472069D01*
X162841306Y-86511507D01*
X162868504Y-86575866D01*
X162856589Y-86644712D01*
X162809345Y-86696188D01*
X162783631Y-86707931D01*
X162593276Y-86769781D01*
X162410886Y-86862715D01*
X162245286Y-86983028D01*
X162100528Y-87127786D01*
X161980215Y-87293386D01*
X161887281Y-87475776D01*
X161824022Y-87670465D01*
X161792000Y-87872648D01*
X161792000Y-88077351D01*
X161824022Y-88279534D01*
X161887281Y-88474223D01*
X161951191Y-88599653D01*
X161977954Y-88652177D01*
X161980215Y-88656613D01*
X162100528Y-88822213D01*
X162245286Y-88966971D01*
X162400249Y-89079556D01*
X162410890Y-89087287D01*
X162527107Y-89146503D01*
X162593276Y-89180218D01*
X162593278Y-89180218D01*
X162593281Y-89180220D01*
X162697637Y-89214127D01*
X162787965Y-89243477D01*
X162889057Y-89259488D01*
X162990148Y-89275500D01*
X162990149Y-89275500D01*
X163194851Y-89275500D01*
X163194852Y-89275500D01*
X163397034Y-89243477D01*
X163591719Y-89180220D01*
X163774110Y-89087287D01*
X163867090Y-89019732D01*
X163939713Y-88966971D01*
X163939715Y-88966968D01*
X163939719Y-88966966D01*
X164084466Y-88822219D01*
X164084468Y-88822215D01*
X164084471Y-88822213D01*
X164165179Y-88711126D01*
X164204787Y-88656610D01*
X164297720Y-88474219D01*
X164360977Y-88279534D01*
X164393000Y-88077352D01*
X164393000Y-87872648D01*
X164390893Y-87859342D01*
X164360977Y-87670465D01*
X164320660Y-87546384D01*
X164297720Y-87475781D01*
X164297718Y-87475778D01*
X164297718Y-87475776D01*
X164239311Y-87361147D01*
X164204787Y-87293390D01*
X164197056Y-87282749D01*
X164084471Y-87127786D01*
X163939713Y-86983028D01*
X163774113Y-86862715D01*
X163774112Y-86862714D01*
X163774110Y-86862713D01*
X163717153Y-86833691D01*
X163591723Y-86769781D01*
X163401368Y-86707931D01*
X163343693Y-86668493D01*
X163316495Y-86604134D01*
X163328410Y-86535288D01*
X163375654Y-86483812D01*
X163401368Y-86472069D01*
X163444008Y-86458213D01*
X163591719Y-86410220D01*
X163774110Y-86317287D01*
X163889167Y-86233694D01*
X163939713Y-86196971D01*
X163939715Y-86196968D01*
X163939719Y-86196966D01*
X164084466Y-86052219D01*
X164084468Y-86052215D01*
X164084471Y-86052213D01*
X164149648Y-85962503D01*
X164204787Y-85886610D01*
X164297720Y-85704219D01*
X164360977Y-85509534D01*
X164393000Y-85307352D01*
X164393000Y-85102648D01*
X164391238Y-85091522D01*
X164360977Y-84900465D01*
X164314422Y-84757185D01*
X164297720Y-84705781D01*
X164297718Y-84705778D01*
X164297718Y-84705776D01*
X164244459Y-84601251D01*
X164204787Y-84523390D01*
X164188963Y-84501610D01*
X164084471Y-84357786D01*
X163939713Y-84213028D01*
X163774113Y-84092715D01*
X163774112Y-84092714D01*
X163774110Y-84092713D01*
X163717153Y-84063691D01*
X163591723Y-83999781D01*
X163400560Y-83937668D01*
X163342885Y-83898230D01*
X163315687Y-83833871D01*
X163327602Y-83765025D01*
X163374846Y-83713549D01*
X163400561Y-83701806D01*
X163591529Y-83639755D01*
X163773849Y-83546859D01*
X163818421Y-83514474D01*
X163221909Y-82917962D01*
X163285493Y-82900925D01*
X163399507Y-82835099D01*
X163492599Y-82742007D01*
X163558425Y-82627993D01*
X163575462Y-82564409D01*
X164171974Y-83160921D01*
X164204359Y-83116349D01*
X164297255Y-82934031D01*
X164360490Y-82739417D01*
X164392500Y-82537317D01*
X164392500Y-82332682D01*
X164360490Y-82130582D01*
X164297255Y-81935968D01*
X164204359Y-81753650D01*
X164171974Y-81709077D01*
X164171974Y-81709076D01*
X163575462Y-82305589D01*
X163558425Y-82242007D01*
X163492599Y-82127993D01*
X163399507Y-82034901D01*
X163285493Y-81969075D01*
X163221908Y-81952037D01*
X163818422Y-81355524D01*
X163818421Y-81355523D01*
X163773859Y-81323147D01*
X163773850Y-81323141D01*
X163591531Y-81230244D01*
X163400560Y-81168193D01*
X163342885Y-81128755D01*
X163315687Y-81064396D01*
X163327602Y-80995550D01*
X163374847Y-80944074D01*
X163400561Y-80932331D01*
X163591719Y-80870220D01*
X163774110Y-80777287D01*
X163886640Y-80695530D01*
X163939713Y-80656971D01*
X163939715Y-80656968D01*
X163939719Y-80656966D01*
X164084466Y-80512219D01*
X164084468Y-80512215D01*
X164084471Y-80512213D01*
X164155097Y-80415003D01*
X164204787Y-80346610D01*
X164297720Y-80164219D01*
X164360977Y-79969534D01*
X164393000Y-79767352D01*
X164393000Y-79562648D01*
X164392392Y-79558812D01*
X164360977Y-79360465D01*
X164315000Y-79218963D01*
X164297720Y-79165781D01*
X164297718Y-79165778D01*
X164297718Y-79165776D01*
X164264003Y-79099607D01*
X164204787Y-78983390D01*
X164177544Y-78945893D01*
X164084471Y-78817786D01*
X163939713Y-78673028D01*
X163774113Y-78552715D01*
X163774112Y-78552714D01*
X163774110Y-78552713D01*
X163717153Y-78523691D01*
X163591723Y-78459781D01*
X163397034Y-78396522D01*
X163212271Y-78367259D01*
X163194852Y-78364500D01*
X162990148Y-78364500D01*
X162972729Y-78367259D01*
X162787965Y-78396522D01*
X162593276Y-78459781D01*
X162410886Y-78552715D01*
X162245286Y-78673028D01*
X162100528Y-78817786D01*
X161980215Y-78983386D01*
X161887281Y-79165776D01*
X161824022Y-79360465D01*
X161792000Y-79562648D01*
X160532133Y-79562648D01*
X160535654Y-79558812D01*
X160561368Y-79547069D01*
X160604008Y-79533213D01*
X160751719Y-79485220D01*
X160934110Y-79392287D01*
X161089731Y-79279223D01*
X161099713Y-79271971D01*
X161099715Y-79271968D01*
X161099719Y-79271966D01*
X161244466Y-79127219D01*
X161244468Y-79127215D01*
X161244471Y-79127213D01*
X161342921Y-78991706D01*
X161364787Y-78961610D01*
X161457720Y-78779219D01*
X161520977Y-78584534D01*
X161553000Y-78382352D01*
X161553000Y-78177648D01*
X161528731Y-78024423D01*
X161520977Y-77975465D01*
X161463772Y-77799408D01*
X161457720Y-77780781D01*
X161457718Y-77780778D01*
X161457718Y-77780776D01*
X161409350Y-77685850D01*
X161364787Y-77598390D01*
X161347634Y-77574781D01*
X161244471Y-77432786D01*
X161099713Y-77288028D01*
X160934113Y-77167715D01*
X160934112Y-77167714D01*
X160934110Y-77167713D01*
X160877153Y-77138691D01*
X160751723Y-77074781D01*
X160557034Y-77011522D01*
X160382495Y-76983878D01*
X160354852Y-76979500D01*
X160150148Y-76979500D01*
X160125829Y-76983351D01*
X159947965Y-77011522D01*
X159753276Y-77074781D01*
X159570886Y-77167714D01*
X159547384Y-77184790D01*
X159481577Y-77208269D01*
X159413523Y-77192443D01*
X159364829Y-77142336D01*
X159350500Y-77084471D01*
X159350500Y-72753937D01*
X159370185Y-72686898D01*
X159422989Y-72641143D01*
X159492147Y-72631199D01*
X159555703Y-72660224D01*
X159579494Y-72687965D01*
X159630384Y-72768956D01*
X159736687Y-72902257D01*
X160378247Y-72260697D01*
X160452088Y-72362330D01*
X160630170Y-72540412D01*
X160731800Y-72614251D01*
X160090241Y-73255810D01*
X160090241Y-73255811D01*
X160223543Y-73362115D01*
X160461299Y-73511507D01*
X160714282Y-73633337D01*
X160979319Y-73726077D01*
X160979321Y-73726078D01*
X161253075Y-73788560D01*
X161253087Y-73788562D01*
X161532098Y-73819999D01*
X161532100Y-73820000D01*
X161812900Y-73820000D01*
X161812901Y-73819999D01*
X162091912Y-73788562D01*
X162091924Y-73788560D01*
X162365678Y-73726078D01*
X162365680Y-73726077D01*
X162630717Y-73633337D01*
X162883700Y-73511507D01*
X163121456Y-73362116D01*
X163254757Y-73255810D01*
X162613198Y-72614251D01*
X162714830Y-72540412D01*
X162892912Y-72362330D01*
X162966751Y-72260698D01*
X163608310Y-72902257D01*
X163714616Y-72768956D01*
X163864007Y-72531200D01*
X163985837Y-72278217D01*
X164078577Y-72013180D01*
X164078578Y-72013178D01*
X164141060Y-71739424D01*
X164141062Y-71739412D01*
X164172499Y-71460401D01*
X164172500Y-71460399D01*
X164172500Y-71179600D01*
X164172499Y-71179598D01*
X164141062Y-70900587D01*
X164141060Y-70900575D01*
X164078578Y-70626821D01*
X164078577Y-70626819D01*
X163985837Y-70361782D01*
X163864007Y-70108799D01*
X163714615Y-69871043D01*
X163608310Y-69737741D01*
X162966751Y-70379300D01*
X162892912Y-70277670D01*
X162714830Y-70099588D01*
X162613197Y-70025747D01*
X163254757Y-69384187D01*
X163121456Y-69277884D01*
X162883700Y-69128492D01*
X162630717Y-69006662D01*
X162365680Y-68913922D01*
X162365678Y-68913921D01*
X162091924Y-68851439D01*
X162091912Y-68851437D01*
X161812901Y-68820000D01*
X161532098Y-68820000D01*
X161253087Y-68851437D01*
X161253075Y-68851439D01*
X160979321Y-68913921D01*
X160979319Y-68913922D01*
X160714282Y-69006662D01*
X160461299Y-69128492D01*
X160223543Y-69277884D01*
X160090241Y-69384187D01*
X160731801Y-70025747D01*
X160630170Y-70099588D01*
X160452088Y-70277670D01*
X160378248Y-70379301D01*
X159736687Y-69737741D01*
X159630384Y-69871043D01*
X159579494Y-69952034D01*
X159527159Y-69998325D01*
X159458106Y-70008973D01*
X159394257Y-69980598D01*
X159355885Y-69922208D01*
X159350500Y-69886062D01*
X159350500Y-60740736D01*
X162059500Y-60740736D01*
X162059500Y-61179263D01*
X162093905Y-61616424D01*
X162093905Y-61616425D01*
X162162503Y-62049539D01*
X162243211Y-62385711D01*
X162264874Y-62475942D01*
X162294363Y-62566700D01*
X162400380Y-62892991D01*
X162524507Y-63192657D01*
X162568197Y-63298133D01*
X162687722Y-63532715D01*
X162767286Y-63688868D01*
X162767289Y-63688873D01*
X162996397Y-64062742D01*
X162996405Y-64062753D01*
X163254151Y-64417512D01*
X163254161Y-64417526D01*
X163538945Y-64750963D01*
X163538951Y-64750970D01*
X163849030Y-65061049D01*
X163849036Y-65061054D01*
X164182473Y-65345838D01*
X164182480Y-65345843D01*
X164537248Y-65603596D01*
X164537252Y-65603598D01*
X164537257Y-65603602D01*
X164911126Y-65832710D01*
X164911131Y-65832713D01*
X164911136Y-65832715D01*
X164911145Y-65832721D01*
X165301867Y-66031803D01*
X165413874Y-66078198D01*
X165707008Y-66199619D01*
X165813050Y-66234073D01*
X166124058Y-66335126D01*
X166550458Y-66437496D01*
X166983576Y-66506095D01*
X167420742Y-66540500D01*
X167420750Y-66540500D01*
X167859250Y-66540500D01*
X167859258Y-66540500D01*
X168296424Y-66506095D01*
X168729542Y-66437496D01*
X169155942Y-66335126D01*
X169572997Y-66199617D01*
X169978133Y-66031803D01*
X170368855Y-65832721D01*
X170742752Y-65603596D01*
X171097520Y-65345843D01*
X171430970Y-65061049D01*
X171741049Y-64750970D01*
X172025843Y-64417520D01*
X172283596Y-64062752D01*
X172512721Y-63688855D01*
X172711803Y-63298133D01*
X172879617Y-62892997D01*
X173015126Y-62475942D01*
X173117496Y-62049542D01*
X173186095Y-61616424D01*
X173220500Y-61179258D01*
X173220500Y-60740742D01*
X173186095Y-60303576D01*
X173117496Y-59870458D01*
X173015126Y-59444058D01*
X172893693Y-59070325D01*
X172879619Y-59027008D01*
X172879617Y-59027003D01*
X172711803Y-58621867D01*
X172512721Y-58231145D01*
X172512715Y-58231136D01*
X172512713Y-58231131D01*
X172512710Y-58231126D01*
X172283602Y-57857257D01*
X172283598Y-57857252D01*
X172283596Y-57857248D01*
X172025843Y-57502480D01*
X172025838Y-57502473D01*
X171741054Y-57169036D01*
X171741049Y-57169030D01*
X171430970Y-56858951D01*
X171425793Y-56854529D01*
X171097526Y-56574161D01*
X171097512Y-56574151D01*
X170882224Y-56417736D01*
X170742752Y-56316404D01*
X170742749Y-56316402D01*
X170742742Y-56316397D01*
X170368873Y-56087289D01*
X170368868Y-56087286D01*
X170368858Y-56087281D01*
X170368855Y-56087279D01*
X169978133Y-55888197D01*
X169935274Y-55870444D01*
X169572991Y-55720380D01*
X169276256Y-55623966D01*
X169155942Y-55584874D01*
X169155930Y-55584871D01*
X168729539Y-55482503D01*
X168296425Y-55413905D01*
X167859263Y-55379500D01*
X167859258Y-55379500D01*
X167420742Y-55379500D01*
X167420736Y-55379500D01*
X166983575Y-55413905D01*
X166983574Y-55413905D01*
X166550460Y-55482503D01*
X166124069Y-55584871D01*
X166124063Y-55584872D01*
X166124058Y-55584874D01*
X166124046Y-55584878D01*
X165707008Y-55720380D01*
X165301880Y-55888191D01*
X165301867Y-55888197D01*
X164911131Y-56087286D01*
X164911126Y-56087289D01*
X164537257Y-56316397D01*
X164537246Y-56316405D01*
X164182487Y-56574151D01*
X164182473Y-56574161D01*
X163849036Y-56858945D01*
X163849022Y-56858958D01*
X163538958Y-57169022D01*
X163538945Y-57169036D01*
X163254161Y-57502473D01*
X163254151Y-57502487D01*
X162996405Y-57857246D01*
X162996397Y-57857257D01*
X162767289Y-58231126D01*
X162767286Y-58231131D01*
X162568197Y-58621867D01*
X162568191Y-58621880D01*
X162400380Y-59027008D01*
X162264878Y-59444046D01*
X162264871Y-59444069D01*
X162162503Y-59870460D01*
X162093905Y-60303574D01*
X162093905Y-60303575D01*
X162059500Y-60740736D01*
X159350500Y-60740736D01*
X159350500Y-52718904D01*
X159370185Y-52651865D01*
X159405609Y-52615802D01*
X159533289Y-52530489D01*
X159644786Y-52418992D01*
X159644789Y-52418989D01*
X159732394Y-52287879D01*
X159792737Y-52142197D01*
X159823500Y-51987542D01*
X159823500Y-51829858D01*
X159823500Y-51829855D01*
X159823499Y-51829853D01*
X159811605Y-51770058D01*
X159792737Y-51675203D01*
X159791984Y-51673384D01*
X159732397Y-51529527D01*
X159732390Y-51529514D01*
X159644789Y-51398411D01*
X159644786Y-51398407D01*
X159533292Y-51286913D01*
X159533288Y-51286910D01*
X159405609Y-51201597D01*
X159360804Y-51147985D01*
X159350500Y-51098495D01*
X159350500Y-50924000D01*
X159370185Y-50856961D01*
X159422989Y-50811206D01*
X159474500Y-50800000D01*
X160025441Y-50800000D01*
X160029098Y-50801073D01*
G37*
%TD.AperFunction*%
%TA.AperFunction,Conductor*%
G36*
X153012539Y-50819685D02*
G01*
X153058294Y-50872489D01*
X153069500Y-50924000D01*
X153069500Y-51006168D01*
X153049815Y-51073207D01*
X152997011Y-51118962D01*
X152969693Y-51127785D01*
X152913507Y-51138961D01*
X152913498Y-51138964D01*
X152767827Y-51199302D01*
X152767814Y-51199309D01*
X152636711Y-51286910D01*
X152636707Y-51286913D01*
X152525213Y-51398407D01*
X152525210Y-51398411D01*
X152437609Y-51529514D01*
X152437602Y-51529527D01*
X152377264Y-51675198D01*
X152377261Y-51675210D01*
X152346500Y-51829853D01*
X152346500Y-51987546D01*
X152377261Y-52142189D01*
X152377264Y-52142201D01*
X152437602Y-52287872D01*
X152437609Y-52287885D01*
X152525210Y-52418988D01*
X152525213Y-52418992D01*
X152576380Y-52470158D01*
X152609866Y-52531481D01*
X152612700Y-52557840D01*
X152612700Y-83104778D01*
X152593015Y-83171817D01*
X152540211Y-83217572D01*
X152471053Y-83227516D01*
X152464510Y-83226396D01*
X152448442Y-83223200D01*
X152290758Y-83223200D01*
X152290755Y-83223200D01*
X152136110Y-83253961D01*
X152136098Y-83253964D01*
X151990427Y-83314302D01*
X151990414Y-83314309D01*
X151859311Y-83401910D01*
X151859307Y-83401913D01*
X151747813Y-83513407D01*
X151747810Y-83513411D01*
X151660209Y-83644514D01*
X151660202Y-83644527D01*
X151599864Y-83790198D01*
X151599861Y-83790210D01*
X151569100Y-83944853D01*
X151569100Y-84102546D01*
X151599861Y-84257189D01*
X151599864Y-84257201D01*
X151660202Y-84402872D01*
X151660209Y-84402885D01*
X151748202Y-84534574D01*
X151769080Y-84601251D01*
X151769100Y-84603465D01*
X151769100Y-96250302D01*
X151749415Y-96317341D01*
X151732781Y-96337983D01*
X150304842Y-97765921D01*
X150243519Y-97799406D01*
X150178848Y-97796173D01*
X150164534Y-97791522D01*
X149989995Y-97763878D01*
X149962352Y-97759500D01*
X149757648Y-97759500D01*
X149717108Y-97765921D01*
X149555464Y-97791523D01*
X149555457Y-97791524D01*
X149522617Y-97802195D01*
X149452776Y-97804190D01*
X149392943Y-97768109D01*
X149362116Y-97705408D01*
X149360300Y-97684264D01*
X149360300Y-96957541D01*
X149379985Y-96890502D01*
X149432789Y-96844747D01*
X149501947Y-96834803D01*
X149565503Y-96863828D01*
X149571981Y-96869860D01*
X149638607Y-96936486D01*
X149638611Y-96936489D01*
X149769714Y-97024090D01*
X149769727Y-97024097D01*
X149915398Y-97084435D01*
X149915403Y-97084437D01*
X150070053Y-97115199D01*
X150070056Y-97115200D01*
X150070058Y-97115200D01*
X150227744Y-97115200D01*
X150227745Y-97115199D01*
X150382397Y-97084437D01*
X150528079Y-97024094D01*
X150659189Y-96936489D01*
X150770689Y-96824989D01*
X150858294Y-96693879D01*
X150864202Y-96679617D01*
X150871967Y-96660866D01*
X150918637Y-96548197D01*
X150949400Y-96393542D01*
X150949400Y-96235858D01*
X150949400Y-96235855D01*
X150949399Y-96235853D01*
X150941089Y-96194077D01*
X150918637Y-96081203D01*
X150913473Y-96068735D01*
X150858297Y-95935527D01*
X150858290Y-95935514D01*
X150770298Y-95803825D01*
X150749420Y-95737147D01*
X150749400Y-95734934D01*
X150749400Y-87361147D01*
X150769085Y-87294108D01*
X150785719Y-87273466D01*
X150787575Y-87271610D01*
X150851966Y-87207219D01*
X150851968Y-87207215D01*
X150851971Y-87207213D01*
X150963168Y-87054161D01*
X150972287Y-87041610D01*
X151065220Y-86859219D01*
X151128477Y-86664534D01*
X151160500Y-86462352D01*
X151160500Y-86257648D01*
X151151430Y-86200383D01*
X151128477Y-86055465D01*
X151079091Y-85903472D01*
X151065220Y-85860781D01*
X151065218Y-85860778D01*
X151065218Y-85860776D01*
X151005098Y-85742786D01*
X150972287Y-85678390D01*
X150953706Y-85652815D01*
X150851971Y-85512786D01*
X150707213Y-85368028D01*
X150541613Y-85247715D01*
X150541612Y-85247714D01*
X150541610Y-85247713D01*
X150477105Y-85214846D01*
X150359223Y-85154781D01*
X150164534Y-85091522D01*
X149989995Y-85063878D01*
X149962352Y-85059500D01*
X149757648Y-85059500D01*
X149733329Y-85063351D01*
X149555465Y-85091522D01*
X149360776Y-85154781D01*
X149242895Y-85214846D01*
X149174226Y-85227742D01*
X149109485Y-85201466D01*
X149069228Y-85144359D01*
X149062600Y-85104361D01*
X149062600Y-82025965D01*
X149082285Y-81958926D01*
X149083498Y-81957074D01*
X149089585Y-81947965D01*
X149171494Y-81825379D01*
X149231837Y-81679697D01*
X149262600Y-81525042D01*
X149262600Y-81367358D01*
X149262600Y-81367355D01*
X149262599Y-81367353D01*
X149255400Y-81331162D01*
X149231837Y-81212703D01*
X149216053Y-81174597D01*
X149171497Y-81067027D01*
X149171490Y-81067014D01*
X149083889Y-80935911D01*
X149083886Y-80935907D01*
X148972392Y-80824413D01*
X148972388Y-80824410D01*
X148841285Y-80736809D01*
X148841272Y-80736802D01*
X148695601Y-80676464D01*
X148695591Y-80676461D01*
X148560708Y-80649631D01*
X148498797Y-80617246D01*
X148464223Y-80556530D01*
X148460900Y-80528014D01*
X148460900Y-74295205D01*
X148480585Y-74228166D01*
X148533389Y-74182411D01*
X148602547Y-74172467D01*
X148666103Y-74201492D01*
X148695384Y-74238908D01*
X148742504Y-74331388D01*
X148747715Y-74341614D01*
X148868028Y-74507213D01*
X149012786Y-74651971D01*
X149162292Y-74760591D01*
X149178390Y-74772287D01*
X149259499Y-74813614D01*
X149360776Y-74865218D01*
X149360778Y-74865218D01*
X149360781Y-74865220D01*
X149444085Y-74892287D01*
X149555465Y-74928477D01*
X149634323Y-74940967D01*
X149757648Y-74960500D01*
X149757649Y-74960500D01*
X149962351Y-74960500D01*
X149962352Y-74960500D01*
X150164534Y-74928477D01*
X150359219Y-74865220D01*
X150541610Y-74772287D01*
X150634590Y-74704732D01*
X150707213Y-74651971D01*
X150707215Y-74651968D01*
X150707219Y-74651966D01*
X150851966Y-74507219D01*
X150851968Y-74507215D01*
X150851971Y-74507213D01*
X150918100Y-74416193D01*
X150972287Y-74341610D01*
X151065220Y-74159219D01*
X151128477Y-73964534D01*
X151160500Y-73762352D01*
X151160500Y-73557648D01*
X151152480Y-73507011D01*
X151128477Y-73355465D01*
X151065218Y-73160776D01*
X151012692Y-73057689D01*
X150972287Y-72978390D01*
X150939154Y-72932786D01*
X150851971Y-72812786D01*
X150707213Y-72668028D01*
X150541613Y-72547715D01*
X150541612Y-72547714D01*
X150541610Y-72547713D01*
X150470583Y-72511523D01*
X150359223Y-72454781D01*
X150164534Y-72391522D01*
X149989995Y-72363878D01*
X149962352Y-72359500D01*
X149757648Y-72359500D01*
X149733329Y-72363351D01*
X149555465Y-72391522D01*
X149360776Y-72454781D01*
X149178386Y-72547715D01*
X149012786Y-72668028D01*
X148868028Y-72812786D01*
X148747715Y-72978386D01*
X148695385Y-73081089D01*
X148647410Y-73131885D01*
X148579589Y-73148680D01*
X148513454Y-73126142D01*
X148470003Y-73071427D01*
X148460900Y-73024794D01*
X148460900Y-63259696D01*
X148480585Y-63192657D01*
X148497214Y-63172019D01*
X149415158Y-62254075D01*
X149476479Y-62220592D01*
X149541151Y-62223825D01*
X149555466Y-62228477D01*
X149757648Y-62260500D01*
X149757649Y-62260500D01*
X149962351Y-62260500D01*
X149962352Y-62260500D01*
X150164534Y-62228477D01*
X150359219Y-62165220D01*
X150541610Y-62072287D01*
X150686005Y-61967379D01*
X150707213Y-61951971D01*
X150707215Y-61951968D01*
X150707219Y-61951966D01*
X150851966Y-61807219D01*
X150851968Y-61807215D01*
X150851971Y-61807213D01*
X150907863Y-61730283D01*
X150972287Y-61641610D01*
X151065220Y-61459219D01*
X151128477Y-61264534D01*
X151160500Y-61062352D01*
X151160500Y-60857648D01*
X151139835Y-60727175D01*
X151128477Y-60655465D01*
X151099127Y-60565137D01*
X151065220Y-60460781D01*
X151065218Y-60460778D01*
X151065218Y-60460776D01*
X151031503Y-60394607D01*
X150972287Y-60278390D01*
X150916618Y-60201767D01*
X150851971Y-60112786D01*
X150707213Y-59968028D01*
X150541613Y-59847715D01*
X150541612Y-59847714D01*
X150541610Y-59847713D01*
X150481745Y-59817210D01*
X150359223Y-59754781D01*
X150349268Y-59751546D01*
X150335179Y-59746969D01*
X150277506Y-59707532D01*
X150250308Y-59643173D01*
X150249500Y-59629039D01*
X150249500Y-59502355D01*
X150249499Y-59502353D01*
X150218737Y-59347703D01*
X150218735Y-59347698D01*
X150158397Y-59202027D01*
X150158390Y-59202014D01*
X150070398Y-59070325D01*
X150049520Y-59003647D01*
X150049500Y-59001434D01*
X150049500Y-52782952D01*
X150069185Y-52715913D01*
X150121989Y-52670158D01*
X150125975Y-52668422D01*
X150247479Y-52618094D01*
X150378589Y-52530489D01*
X150490089Y-52418989D01*
X150577694Y-52287879D01*
X150638037Y-52142197D01*
X150668800Y-51987542D01*
X150668800Y-51829858D01*
X150668800Y-51829855D01*
X150668799Y-51829853D01*
X150656905Y-51770058D01*
X150638037Y-51675203D01*
X150637284Y-51673384D01*
X150577697Y-51529527D01*
X150577690Y-51529514D01*
X150490089Y-51398411D01*
X150490086Y-51398407D01*
X150378592Y-51286913D01*
X150378588Y-51286910D01*
X150247485Y-51199309D01*
X150247472Y-51199302D01*
X150101801Y-51138964D01*
X150101789Y-51138961D01*
X149947145Y-51108200D01*
X149947142Y-51108200D01*
X149789458Y-51108200D01*
X149789456Y-51108200D01*
X149634805Y-51138962D01*
X149628971Y-51140732D01*
X149628511Y-51139217D01*
X149566706Y-51145860D01*
X149504228Y-51114582D01*
X149501047Y-51111512D01*
X149401216Y-51011681D01*
X149367731Y-50950358D01*
X149372715Y-50880666D01*
X149414587Y-50824733D01*
X149480051Y-50800316D01*
X149488897Y-50800000D01*
X152945500Y-50800000D01*
X153012539Y-50819685D01*
G37*
%TD.AperFunction*%
%TA.AperFunction,Conductor*%
G36*
X116310720Y-90097733D02*
G01*
X116312147Y-90097528D01*
X116336029Y-90104080D01*
X116336148Y-90103714D01*
X116340777Y-90105218D01*
X116340781Y-90105220D01*
X116452418Y-90141493D01*
X116535465Y-90168477D01*
X116636557Y-90184488D01*
X116737648Y-90200500D01*
X116737649Y-90200500D01*
X116942351Y-90200500D01*
X116942352Y-90200500D01*
X117144534Y-90168477D01*
X117188581Y-90154164D01*
X117258422Y-90152169D01*
X117318255Y-90188249D01*
X117349084Y-90250950D01*
X117350900Y-90272096D01*
X117350900Y-95148428D01*
X117331215Y-95215467D01*
X117278411Y-95261222D01*
X117209253Y-95271166D01*
X117188583Y-95266359D01*
X117144425Y-95252011D01*
X117144418Y-95252010D01*
X116942317Y-95220000D01*
X116737683Y-95220000D01*
X116535582Y-95252009D01*
X116336340Y-95316749D01*
X116335930Y-95315487D01*
X116272470Y-95322303D01*
X116209994Y-95291022D01*
X116174348Y-95230929D01*
X116170500Y-95200276D01*
X116170500Y-90220266D01*
X116179744Y-90188784D01*
X116187860Y-90156990D01*
X116189539Y-90155426D01*
X116190185Y-90153227D01*
X116214973Y-90131747D01*
X116238998Y-90109381D01*
X116241255Y-90108973D01*
X116242989Y-90107472D01*
X116275468Y-90102801D01*
X116307758Y-90096977D01*
X116310720Y-90097733D01*
G37*
%TD.AperFunction*%
%TA.AperFunction,Conductor*%
G36*
X102281539Y-50819685D02*
G01*
X102327294Y-50872489D01*
X102338500Y-50924000D01*
X102338500Y-59436000D01*
X102318815Y-59503039D01*
X102266011Y-59548794D01*
X102214500Y-59560000D01*
X101850000Y-59560000D01*
X101850000Y-60584722D01*
X101773694Y-60540667D01*
X101659244Y-60510000D01*
X101540756Y-60510000D01*
X101426306Y-60540667D01*
X101350000Y-60584722D01*
X101350000Y-59560000D01*
X100652155Y-59560000D01*
X100592627Y-59566401D01*
X100592620Y-59566403D01*
X100457913Y-59616645D01*
X100457906Y-59616649D01*
X100342812Y-59702809D01*
X100342809Y-59702812D01*
X100256649Y-59817906D01*
X100256645Y-59817913D01*
X100206403Y-59952620D01*
X100206401Y-59952627D01*
X100200000Y-60012155D01*
X100200000Y-60710000D01*
X101224722Y-60710000D01*
X101180667Y-60786306D01*
X101150000Y-60900756D01*
X101150000Y-61019244D01*
X101180667Y-61133694D01*
X101224722Y-61210000D01*
X100200000Y-61210000D01*
X100200000Y-61907844D01*
X100206401Y-61967372D01*
X100206403Y-61967379D01*
X100256645Y-62102086D01*
X100256649Y-62102093D01*
X100342809Y-62217187D01*
X100342812Y-62217190D01*
X100457906Y-62303350D01*
X100457913Y-62303354D01*
X100592620Y-62353596D01*
X100592627Y-62353598D01*
X100652155Y-62359999D01*
X100652172Y-62360000D01*
X101350000Y-62360000D01*
X101350000Y-61335277D01*
X101426306Y-61379333D01*
X101540756Y-61410000D01*
X101659244Y-61410000D01*
X101773694Y-61379333D01*
X101850000Y-61335277D01*
X101850000Y-62360000D01*
X102076500Y-62360000D01*
X102143539Y-62379685D01*
X102189294Y-62432489D01*
X102200500Y-62484000D01*
X102200500Y-63278902D01*
X102180815Y-63345941D01*
X102178138Y-63349935D01*
X102171891Y-63358872D01*
X102134980Y-63395784D01*
X102084860Y-63482595D01*
X102082187Y-63487224D01*
X102082177Y-63487239D01*
X102055925Y-63532709D01*
X102055924Y-63532710D01*
X102045920Y-63570046D01*
X102014999Y-63685443D01*
X102014999Y-63685445D01*
X102014999Y-63853546D01*
X102015000Y-63853559D01*
X102015000Y-68247352D01*
X101995315Y-68314391D01*
X101978681Y-68335033D01*
X100134130Y-70179583D01*
X100072807Y-70213068D01*
X100003115Y-70208084D01*
X99958768Y-70179583D01*
X99907213Y-70128028D01*
X99741610Y-70007712D01*
X99728200Y-70000879D01*
X99677406Y-69952903D01*
X99660500Y-69890397D01*
X99660500Y-53440660D01*
X99660501Y-53440647D01*
X99660501Y-53272544D01*
X99657552Y-53261538D01*
X99619577Y-53119816D01*
X99619573Y-53119809D01*
X99540524Y-52982890D01*
X99540518Y-52982882D01*
X98451673Y-51894037D01*
X98418188Y-51832714D01*
X98417737Y-51830547D01*
X98405705Y-51770058D01*
X98386837Y-51675203D01*
X98386084Y-51673384D01*
X98326497Y-51529527D01*
X98326490Y-51529514D01*
X98238498Y-51397825D01*
X98232847Y-51379778D01*
X98222623Y-51363869D01*
X98218171Y-51332907D01*
X98217620Y-51331147D01*
X98217600Y-51328934D01*
X98217600Y-51272998D01*
X98237285Y-51205959D01*
X98253921Y-51185315D01*
X98270518Y-51168718D01*
X98270518Y-51168717D01*
X98270520Y-51168716D01*
X98349577Y-51031784D01*
X98387058Y-50891904D01*
X98423424Y-50832245D01*
X98486271Y-50801717D01*
X98506833Y-50800000D01*
X102214500Y-50800000D01*
X102281539Y-50819685D01*
G37*
%TD.AperFunction*%
%TA.AperFunction,Conductor*%
G36*
X127612539Y-50819685D02*
G01*
X127658294Y-50872489D01*
X127669500Y-50924000D01*
X127669500Y-56369903D01*
X127649815Y-56436942D01*
X127633181Y-56457584D01*
X123392090Y-60698674D01*
X123330767Y-60732159D01*
X123261075Y-60727175D01*
X123205142Y-60685303D01*
X123186478Y-60649312D01*
X123125218Y-60460776D01*
X123091503Y-60394607D01*
X123032287Y-60278390D01*
X122976618Y-60201767D01*
X122911971Y-60112786D01*
X122767213Y-59968028D01*
X122601613Y-59847715D01*
X122601612Y-59847714D01*
X122601610Y-59847713D01*
X122541745Y-59817210D01*
X122419223Y-59754781D01*
X122224534Y-59691522D01*
X122038799Y-59662105D01*
X122022352Y-59659500D01*
X121817648Y-59659500D01*
X121801201Y-59662105D01*
X121615465Y-59691522D01*
X121420776Y-59754781D01*
X121307495Y-59812502D01*
X121238826Y-59825398D01*
X121174085Y-59799122D01*
X121133828Y-59742015D01*
X121127200Y-59702017D01*
X121127200Y-55631797D01*
X121146885Y-55564758D01*
X121163519Y-55544116D01*
X121447613Y-55260022D01*
X121743984Y-54963650D01*
X121784209Y-54936773D01*
X121824479Y-54920094D01*
X121955589Y-54832489D01*
X122067089Y-54720989D01*
X122154694Y-54589879D01*
X122215037Y-54444197D01*
X122245800Y-54289542D01*
X122245800Y-54131858D01*
X122245800Y-54131855D01*
X122245799Y-54131853D01*
X122231081Y-54057861D01*
X122215037Y-53977203D01*
X122193481Y-53925162D01*
X122154697Y-53831527D01*
X122154690Y-53831514D01*
X122067089Y-53700411D01*
X122067086Y-53700407D01*
X121955592Y-53588913D01*
X121955588Y-53588910D01*
X121824485Y-53501309D01*
X121824472Y-53501302D01*
X121678801Y-53440964D01*
X121678789Y-53440961D01*
X121524145Y-53410200D01*
X121524142Y-53410200D01*
X121366458Y-53410200D01*
X121366455Y-53410200D01*
X121211810Y-53440961D01*
X121211798Y-53440964D01*
X121066127Y-53501302D01*
X121066114Y-53501309D01*
X120935011Y-53588910D01*
X120935007Y-53588913D01*
X120823513Y-53700407D01*
X120823510Y-53700411D01*
X120735909Y-53831514D01*
X120735902Y-53831527D01*
X120675564Y-53977198D01*
X120675561Y-53977210D01*
X120644800Y-54131853D01*
X120644800Y-54193554D01*
X120625115Y-54260593D01*
X120572311Y-54306348D01*
X120503153Y-54316292D01*
X120451910Y-54296657D01*
X120409183Y-54268108D01*
X120409172Y-54268102D01*
X120263501Y-54207764D01*
X120263491Y-54207761D01*
X120121303Y-54179478D01*
X120093172Y-54164763D01*
X120064292Y-54151574D01*
X120062435Y-54148684D01*
X120059392Y-54147093D01*
X120043679Y-54119500D01*
X120026518Y-54092796D01*
X120025857Y-54088202D01*
X120024818Y-54086377D01*
X120021495Y-54057861D01*
X120021495Y-53925162D01*
X120041180Y-53858123D01*
X120057814Y-53837481D01*
X120558114Y-53337181D01*
X121130520Y-52764776D01*
X121209577Y-52627844D01*
X121250501Y-52475117D01*
X121250501Y-52317002D01*
X121250501Y-52309407D01*
X121250500Y-52309389D01*
X121250500Y-50924000D01*
X121270185Y-50856961D01*
X121322989Y-50811206D01*
X121374500Y-50800000D01*
X127545500Y-50800000D01*
X127612539Y-50819685D01*
G37*
%TD.AperFunction*%
%TA.AperFunction,Conductor*%
G36*
X93980000Y-139075500D02*
G01*
X93960315Y-139142539D01*
X93907511Y-139188294D01*
X93856000Y-139199500D01*
X81814523Y-139199500D01*
X81806918Y-139199499D01*
X81806915Y-139199499D01*
X81776726Y-139199499D01*
X81744771Y-139199499D01*
X81744770Y-139199498D01*
X81737285Y-139199273D01*
X81447157Y-139181722D01*
X81432290Y-139179916D01*
X81150100Y-139128194D01*
X81135558Y-139124609D01*
X80861660Y-139039241D01*
X80847656Y-139033929D01*
X80586049Y-138916163D01*
X80572788Y-138909202D01*
X80327280Y-138760749D01*
X80314955Y-138752239D01*
X80089140Y-138575274D01*
X80077937Y-138565347D01*
X79875095Y-138362436D01*
X79865175Y-138351234D01*
X79688281Y-138125355D01*
X79679780Y-138113033D01*
X79531401Y-137867462D01*
X79524457Y-137854224D01*
X79406770Y-137592563D01*
X79401469Y-137578575D01*
X79316185Y-137304622D01*
X79312610Y-137290099D01*
X79260977Y-137007872D01*
X79259178Y-136993004D01*
X79241752Y-136703342D01*
X79241528Y-136695855D01*
X79241550Y-136633252D01*
X79241549Y-136633248D01*
X79242962Y-132501753D01*
X79243977Y-129540000D01*
X93980000Y-129540000D01*
X93980000Y-139075500D01*
G37*
%TD.AperFunction*%
%TA.AperFunction,Conductor*%
G36*
X177299500Y-136696249D02*
G01*
X177299274Y-136703736D01*
X177281728Y-136993794D01*
X177279923Y-137008659D01*
X177228219Y-137290798D01*
X177224635Y-137305336D01*
X177139306Y-137579167D01*
X177133997Y-137593168D01*
X177016275Y-137854736D01*
X177009316Y-137867995D01*
X176860928Y-138113459D01*
X176852422Y-138125782D01*
X176675526Y-138351573D01*
X176665596Y-138362781D01*
X176462781Y-138565596D01*
X176451573Y-138575526D01*
X176225782Y-138752422D01*
X176213459Y-138760928D01*
X175967995Y-138909316D01*
X175954736Y-138916275D01*
X175693168Y-139033997D01*
X175679167Y-139039306D01*
X175405336Y-139124635D01*
X175390798Y-139128219D01*
X175108659Y-139179923D01*
X175093794Y-139181728D01*
X174803736Y-139199274D01*
X174796249Y-139199500D01*
X162684000Y-139199500D01*
X162616961Y-139179815D01*
X162571206Y-139127011D01*
X162560000Y-139075500D01*
X162560000Y-129540000D01*
X177299500Y-129540000D01*
X177299500Y-136696249D01*
G37*
%TD.AperFunction*%
M02*
