%TF.GenerationSoftware,KiCad,Pcbnew,9.0.4-1.fc42*%
%TF.CreationDate,2025-09-05T17:11:52+08:00*%
%TF.ProjectId,STICKLEBACK,53544943-4b4c-4454-9241-434b2e6b6963,rev?*%
%TF.SameCoordinates,Original*%
%TF.FileFunction,Profile,NP*%
%FSLAX46Y46*%
G04 Gerber Fmt 4.6, Leading zero omitted, Abs format (unit mm)*
G04 Created by KiCad (PCBNEW 9.0.4-1.fc42) date 2025-09-05 17:11:52*
%MOMM*%
%LPD*%
G01*
G04 APERTURE LIST*
%TA.AperFunction,Profile*%
%ADD10C,0.050000*%
%TD*%
%TA.AperFunction,Profile*%
%ADD11C,0.120000*%
%TD*%
G04 APERTURE END LIST*
D10*
X78741027Y-136698973D02*
X78759479Y-82780000D01*
X78743360Y-53803357D02*
G75*
G02*
X81743359Y-50799958I3000040J3357D01*
G01*
X81743359Y-50800000D02*
X93980000Y-50800000D01*
X177800000Y-53800000D02*
X177800000Y-136700000D01*
X78743360Y-53803357D02*
X78759479Y-68208952D01*
X174800000Y-50800000D02*
X162560000Y-50800000D01*
X78759479Y-68208952D02*
X78759479Y-69780000D01*
X174800000Y-50800000D02*
G75*
G02*
X177800000Y-53800000I0J-3000000D01*
G01*
X172720000Y-119380000D02*
G75*
G02*
X162560000Y-119380000I-5080000J0D01*
G01*
X162560000Y-119380000D02*
G75*
G02*
X172720000Y-119380000I5080000J0D01*
G01*
X93980000Y-60960000D02*
G75*
G02*
X83820000Y-60960000I-5080000J0D01*
G01*
X83820000Y-60960000D02*
G75*
G02*
X93980000Y-60960000I5080000J0D01*
G01*
X134620000Y-91440000D02*
G75*
G02*
X124460000Y-91440000I-5080000J0D01*
G01*
X124460000Y-91440000D02*
G75*
G02*
X134620000Y-91440000I5080000J0D01*
G01*
X172720000Y-60960000D02*
G75*
G02*
X162560000Y-60960000I-5080000J0D01*
G01*
X162560000Y-60960000D02*
G75*
G02*
X172720000Y-60960000I5080000J0D01*
G01*
X81741027Y-139700000D02*
G75*
G02*
X78741000Y-136698973I-27J3000000D01*
G01*
X177800000Y-136700000D02*
G75*
G02*
X174800000Y-139700000I-3000000J0D01*
G01*
X81741027Y-139700000D02*
X174800000Y-139700000D01*
X96012000Y-50292000D02*
X93980000Y-50800000D01*
X93980000Y-119380000D02*
G75*
G02*
X83820000Y-119380000I-5080000J0D01*
G01*
X83820000Y-119380000D02*
G75*
G02*
X93980000Y-119380000I5080000J0D01*
G01*
X162560000Y-50800000D02*
X160528000Y-50546000D01*
X96012000Y-41148000D02*
X121666000Y-41148000D01*
X96012000Y-50292000D02*
X96012000Y-41148000D01*
X121666000Y-41148000D02*
X121666000Y-50292000D01*
X121666000Y-50292000D02*
X124714000Y-50292000D01*
X124714000Y-41148000D02*
X160528000Y-41148000D01*
X124714000Y-50292000D02*
X124714000Y-41148000D01*
X160528000Y-41148000D02*
X160528000Y-50546000D01*
D11*
X78759500Y-74080000D02*
X78759500Y-69780000D01*
X78759500Y-78480000D02*
X78759500Y-82780000D01*
X79759500Y-74080000D02*
X78759500Y-74080000D01*
X79759500Y-78480000D02*
X78759500Y-78480000D01*
X80159500Y-78080000D02*
X80159500Y-74480000D01*
X79759500Y-74080000D02*
G75*
G02*
X80159500Y-74480000I-2J-400002D01*
G01*
X80159500Y-78080000D02*
G75*
G02*
X79759500Y-78480000I-400000J0D01*
G01*
M02*
