M48
; DRILL file {KiCad 9.0.4-1.fc42} date 2025-09-05T17:11:56+0800
; FORMAT={-:-/ absolute / metric / decimal}
; #@! TF.CreationDate,2025-09-05T17:11:56+08:00
; #@! TF.GenerationSoftware,Kicad,Pcbnew,9.0.4-1.fc42
; #@! TF.FileFunction,Plated,1,2,PTH
FMAT,2
METRIC
; #@! TA.AperFunction,Plated,PTH,ViaDrill
T1C0.300
; #@! TA.AperFunction,Plated,PTH,ComponentDrill
T2C0.400
; #@! TA.AperFunction,Plated,PTH,ComponentDrill
T3C0.800
; #@! TA.AperFunction,Plated,PTH,ComponentDrill
T4C0.900
; #@! TA.AperFunction,Plated,PTH,ComponentDrill
T5C1.000
; #@! TA.AperFunction,Plated,PTH,ComponentDrill
T6C3.200
%
G90
G05
T1
X93.836Y-78.454
X93.864Y-66.156
X93.98Y-127.0
X94.698Y-53.34
X95.681Y-53.975
X95.721Y-107.497
X96.272Y-108.377
X96.594Y-109.277
X96.633Y-126.334
X96.723Y-110.457
X96.816Y-78.844
X97.209Y-128.685
X97.357Y-111.373
X97.379Y-53.727
X97.526Y-57.715
X97.617Y-51.909
X97.758Y-112.169
X98.272Y-55.439
X98.768Y-128.897
X98.778Y-108.661
X99.792Y-127.173
X100.48Y-125.592
X100.537Y-109.318
X100.719Y-68.385
X100.754Y-110.573
X101.217Y-127.32
X101.246Y-51.984
X101.6Y-72.547
X102.385Y-125.536
X103.456Y-63.491
X105.743Y-54.872
X106.041Y-61.527
X106.375Y-111.371
X106.672Y-51.639
X106.672Y-69.15
X106.672Y-93.411
X107.38Y-58.409
X107.611Y-125.502
X107.942Y-51.553
X109.035Y-53.575
X109.22Y-127.0
X110.593Y-55.792
X112.308Y-116.142
X115.57Y-108.241
X116.191Y-80.648
X116.84Y-91.44
X117.239Y-116.524
X117.732Y-55.708
X118.053Y-117.356
X118.309Y-106.316
X119.925Y-90.425
X120.03Y-54.977
X120.971Y-96.386
X121.445Y-54.211
X121.445Y-100.592
X121.591Y-128.685
X121.752Y-93.411
X122.803Y-106.184
X123.012Y-128.308
X123.301Y-57.612
X123.892Y-128.687
X124.46Y-71.12
X124.46Y-78.74
X126.269Y-107.236
X126.6Y-85.524
X127.0Y-66.04
X127.0Y-76.2
X129.317Y-51.686
X129.424Y-128.978
X129.54Y-68.58
X129.54Y-76.2
X129.54Y-78.74
X129.731Y-99.507
X130.064Y-54.514
X130.393Y-128.224
X132.08Y-63.5
X132.804Y-80.784
X136.325Y-51.909
X137.681Y-54.512
X137.688Y-128.687
X143.139Y-128.687
X144.699Y-51.909
X146.333Y-121.429
X146.395Y-80.648
X147.367Y-105.386
X147.428Y-51.909
X147.63Y-128.687
X148.118Y-90.424
X148.462Y-81.446
X148.87Y-125.908
X149.449Y-59.581
X149.86Y-119.38
X149.868Y-51.909
X149.868Y-128.685
X150.149Y-96.315
X151.013Y-70.561
X152.37Y-84.024
X153.147Y-51.909
X153.213Y-128.685
X156.005Y-51.909
X156.301Y-128.685
X159.023Y-51.909
X161.844Y-127.0
T3
X86.466Y-100.143
X86.466Y-102.643
X99.06Y-71.12
X99.06Y-78.74
X99.06Y-88.9
X99.06Y-96.52
X101.6Y-71.12
X101.6Y-78.74
X101.6Y-88.9
X101.6Y-96.52
X101.6Y-106.68
X101.6Y-114.3
X104.14Y-71.12
X104.14Y-78.74
X104.14Y-88.9
X104.14Y-96.52
X104.14Y-106.68
X104.14Y-114.3
X106.68Y-71.12
X106.68Y-78.74
X106.68Y-88.9
X106.68Y-96.52
X106.68Y-106.68
X106.68Y-114.3
X109.22Y-71.12
X109.22Y-78.74
X109.22Y-88.9
X109.22Y-96.52
X109.22Y-106.68
X109.22Y-114.3
X111.76Y-60.96
X111.76Y-71.12
X111.76Y-78.74
X111.76Y-88.9
X111.76Y-96.52
X111.76Y-106.68
X111.76Y-114.3
X114.3Y-71.12
X114.3Y-78.74
X114.3Y-88.9
X114.3Y-96.52
X114.3Y-106.68
X114.3Y-114.3
X116.84Y-71.12
X116.84Y-78.74
X116.84Y-88.9
X116.84Y-96.52
X116.84Y-106.68
X116.84Y-114.3
X121.92Y-60.96
X139.7Y-60.96
X139.7Y-73.66
X139.7Y-86.36
X139.7Y-99.06
X139.7Y-114.3
X149.86Y-60.96
X149.86Y-73.66
X149.86Y-86.36
X149.86Y-99.06
X149.86Y-114.3
T4
X101.6Y-60.96
X104.14Y-60.96
T5
X160.252Y-78.28
X160.252Y-81.05
X160.252Y-83.82
X160.252Y-86.59
X160.252Y-89.36
X163.093Y-79.665
X163.093Y-82.435
X163.093Y-85.205
X163.093Y-87.975
T6
X161.672Y-71.32
X161.672Y-96.32
T2
G00X83.26Y-75.78
M15
G01X83.26Y-76.78
M16
G05
G00X88.76Y-71.28
M15
G01X87.76Y-71.28
M16
G05
G00X87.76Y-81.28
M15
G01X88.76Y-81.28
M16
G05
T3
G00X88.609Y-73.78
M15
G01X87.909Y-73.78
M16
G05
G00X87.909Y-78.78
M15
G01X88.609Y-78.78
M16
G05
M30
