%TF.GenerationSoftware,KiCad,Pcbnew,9.0.4-1.fc42*%
%TF.CreationDate,2025-09-05T17:11:52+08:00*%
%TF.ProjectId,STICKLEBACK,53544943-4b4c-4454-9241-434b2e6b6963,rev?*%
%TF.SameCoordinates,Original*%
%TF.FileFunction,Soldermask,Top*%
%TF.FilePolarity,Negative*%
%FSLAX46Y46*%
G04 Gerber Fmt 4.6, Leading zero omitted, Abs format (unit mm)*
G04 Created by KiCad (PCBNEW 9.0.4-1.fc42) date 2025-09-05 17:11:52*
%MOMM*%
%LPD*%
G01*
G04 APERTURE LIST*
G04 Aperture macros list*
%AMRoundRect*
0 Rectangle with rounded corners*
0 $1 Rounding radius*
0 $2 $3 $4 $5 $6 $7 $8 $9 X,Y pos of 4 corners*
0 Add a 4 corners polygon primitive as box body*
4,1,4,$2,$3,$4,$5,$6,$7,$8,$9,$2,$3,0*
0 Add four circle primitives for the rounded corners*
1,1,$1+$1,$2,$3*
1,1,$1+$1,$4,$5*
1,1,$1+$1,$6,$7*
1,1,$1+$1,$8,$9*
0 Add four rect primitives between the rounded corners*
20,1,$1+$1,$2,$3,$4,$5,0*
20,1,$1+$1,$4,$5,$6,$7,0*
20,1,$1+$1,$6,$7,$8,$9,0*
20,1,$1+$1,$8,$9,$2,$3,0*%
G04 Aperture macros list end*
%ADD10RoundRect,0.225000X-0.525000X4.275000X-0.525000X-4.275000X0.525000X-4.275000X0.525000X4.275000X0*%
%ADD11C,1.600000*%
%ADD12RoundRect,0.250000X0.550000X-0.550000X0.550000X0.550000X-0.550000X0.550000X-0.550000X-0.550000X0*%
%ADD13C,1.200000*%
%ADD14O,2.200000X1.200000*%
%ADD15O,2.300000X1.600000*%
%ADD16O,1.200000X2.200000*%
%ADD17O,2.500000X1.600000*%
%ADD18C,4.000000*%
%ADD19R,1.600000X1.600000*%
%ADD20R,1.800000X1.800000*%
%ADD21C,1.800000*%
G04 APERTURE END LIST*
D10*
X158750000Y-134620000D03*
X156210000Y-134620000D03*
X153670000Y-134620000D03*
X151130000Y-134620000D03*
X148590000Y-134620000D03*
X146050000Y-134620000D03*
X143510000Y-134620000D03*
X140970000Y-134620000D03*
X138430000Y-134620000D03*
X135890000Y-134620000D03*
X133350000Y-134620000D03*
X130810000Y-134620000D03*
X128270000Y-134620000D03*
X125730000Y-134620000D03*
X123190000Y-134620000D03*
X120650000Y-134620000D03*
X118110000Y-134620000D03*
X115570000Y-134620000D03*
X113030000Y-134620000D03*
X110490000Y-134620000D03*
X107950000Y-134620000D03*
X105410000Y-134620000D03*
X102870000Y-134620000D03*
X100330000Y-134620000D03*
X97790000Y-134620000D03*
X158750000Y-45720000D03*
X156210000Y-45720000D03*
X153670000Y-45720000D03*
X151130000Y-45720000D03*
X148590000Y-45720000D03*
X146050000Y-45720000D03*
X143510000Y-45720000D03*
X140970000Y-45720000D03*
X138430000Y-45720000D03*
X135890000Y-45720000D03*
X133350000Y-45720000D03*
X130810000Y-45720000D03*
X128270000Y-45720000D03*
X125730000Y-45720000D03*
X120650000Y-45720000D03*
X118110000Y-45720000D03*
X115570000Y-45720000D03*
X113030000Y-45720000D03*
X110490000Y-45720000D03*
X107950000Y-45720000D03*
X105410000Y-45720000D03*
X102870000Y-45720000D03*
X100330000Y-45720000D03*
X97790000Y-45720000D03*
D11*
X139700000Y-114300000D03*
X149860000Y-114300000D03*
X139700000Y-86360000D03*
X149860000Y-86360000D03*
D12*
X99060000Y-78740000D03*
D11*
X101600000Y-78740000D03*
X104140000Y-78740000D03*
X106680000Y-78740000D03*
X109220000Y-78740000D03*
X111760000Y-78740000D03*
X114300000Y-78740000D03*
X116840000Y-78740000D03*
X116840000Y-71120000D03*
X114300000Y-71120000D03*
X111760000Y-71120000D03*
X109220000Y-71120000D03*
X106680000Y-71120000D03*
X104140000Y-71120000D03*
X101600000Y-71120000D03*
X99060000Y-71120000D03*
D13*
X83259500Y-71280000D03*
X80759500Y-71280000D03*
X88259500Y-76280000D03*
X83259500Y-81280000D03*
X80759500Y-81280000D03*
D14*
X88259500Y-71280000D03*
D15*
X88259500Y-73780000D03*
D16*
X83259500Y-76280000D03*
D14*
X88259500Y-81280000D03*
D17*
X88259500Y-78780000D03*
D11*
X139700000Y-60960000D03*
X149860000Y-60960000D03*
X139700000Y-73660000D03*
X149860000Y-73660000D03*
D12*
X99060000Y-96520000D03*
D11*
X101600000Y-96520000D03*
X104140000Y-96520000D03*
X106680000Y-96520000D03*
X109220000Y-96520000D03*
X111760000Y-96520000D03*
X114300000Y-96520000D03*
X116840000Y-96520000D03*
X116840000Y-88900000D03*
X114300000Y-88900000D03*
X111760000Y-88900000D03*
X109220000Y-88900000D03*
X106680000Y-88900000D03*
X104140000Y-88900000D03*
X101600000Y-88900000D03*
X99060000Y-88900000D03*
D12*
X86465622Y-102642990D03*
D11*
X86465622Y-100142990D03*
X121920000Y-60960000D03*
X111760000Y-60960000D03*
X139700000Y-99060000D03*
X149860000Y-99060000D03*
D18*
X161672500Y-96320000D03*
X161672500Y-71320000D03*
D19*
X160252500Y-89360000D03*
D11*
X160252500Y-86590000D03*
X160252500Y-83820000D03*
X160252500Y-81050000D03*
X160252500Y-78280000D03*
X163092500Y-87975000D03*
X163092500Y-85205000D03*
X163092500Y-82435000D03*
X163092500Y-79665000D03*
D20*
X101600000Y-60960000D03*
D21*
X104140000Y-60960000D03*
D12*
X101600000Y-114300000D03*
D11*
X104140000Y-114300000D03*
X106680000Y-114300000D03*
X109220000Y-114300000D03*
X111760000Y-114300000D03*
X114300000Y-114300000D03*
X116840000Y-114300000D03*
X116840000Y-106680000D03*
X114300000Y-106680000D03*
X111760000Y-106680000D03*
X109220000Y-106680000D03*
X106680000Y-106680000D03*
X104140000Y-106680000D03*
X101600000Y-106680000D03*
M02*
