<?xml version="1.0" standalone="no"?>
<!DOCTYPE svg PUBLIC "-//W3C//DTD SVG 20010904//EN"
 "http://www.w3.org/TR/2001/REC-SVG-20010904/DTD/svg10.dtd">
<svg version="1.0" xmlns="http://www.w3.org/2000/svg"
 width="1024.000000pt" height="1024.000000pt" viewBox="0 0 1024.000000 1024.000000"
 preserveAspectRatio="xMidYMid meet">

<g transform="translate(0.000000,1024.000000) scale(0.100000,-0.100000)"
fill="#000000" stroke="none">
<path d="M5924 8135 c42 -109 221 -706 270 -900 56 -224 92 -453 81 -506 l-7
-29 -277 0 c-252 0 -279 2 -293 18 -9 9 -64 114 -123 232 -209 419 -364 656
-588 898 -39 41 -68 69 -64 61 208 -493 377 -1029 377 -1200 0 -36 -6 -54 -22
-73 -26 -29 -57 -37 -238 -62 -218 -30 -204 -30 -233 8 -14 18 -51 85 -82 148
-122 244 -274 484 -423 667 -42 52 -90 112 -106 134 -16 21 -31 37 -34 35 -2
-2 10 -46 26 -98 63 -195 213 -714 237 -818 29 -126 31 -163 10 -184 -17 -16
-94 -42 -155 -52 -44 -7 -47 -5 -140 156 -178 304 -420 604 -504 626 -81 20
-320 -154 -594 -434 -289 -295 -498 -615 -510 -781 l-4 -66 88 -12 c49 -7 109
-19 134 -26 l45 -14 -75 -35 c-121 -57 -258 -105 -349 -123 -113 -23 -320 -17
-401 13 -138 49 -251 142 -418 341 -356 426 -690 744 -929 884 -8 5 -24 -30
-52 -115 -85 -265 -117 -482 -108 -737 7 -208 30 -315 112 -536 31 -83 38
-112 37 -175 0 -78 -11 -117 -85 -320 -87 -238 -125 -540 -96 -770 18 -145 93
-460 109 -460 5 0 82 49 172 109 176 118 376 274 557 435 62 55 168 149 235
209 189 168 332 258 462 292 91 23 240 20 359 -9 80 -20 219 -68 233 -80 1 -2
-39 -25 -89 -52 -127 -68 -139 -98 -99 -243 50 -179 146 -389 303 -664 159
-277 338 -614 359 -677 5 -17 55 -1 153 47 266 132 556 417 700 688 20 39 38
71 39 72 1 2 45 -13 97 -31 272 -97 822 -188 1346 -222 l102 -7 -38 -27 c-50
-36 -75 -70 -112 -147 -89 -186 -106 -374 -69 -753 27 -280 26 -391 -4 -505
-13 -49 -23 -92 -20 -94 8 -8 163 53 269 105 132 65 259 154 379 266 l89 82
-5 -152 -4 -152 54 52 c86 84 208 234 287 353 147 219 286 558 337 820 l24
120 139 7 c178 9 332 28 615 77 124 21 290 46 370 55 367 43 752 144 1135 299
520 209 844 389 901 500 9 16 16 50 16 75 0 68 -27 89 -140 109 l-91 16 98 72
c132 98 163 153 127 223 -18 35 -101 113 -196 185 -41 31 -127 97 -190 147
-453 358 -1281 806 -1890 1022 -232 83 -557 172 -717 198 -62 10 -77 16 -101
44 -16 18 -67 125 -117 242 -217 513 -419 886 -612 1127 -93 116 -98 121 -79
72z m349 -677 c150 -295 297 -693 297 -802 0 -26 0 -26 -83 -26 l-84 0 -6 98
c-10 166 -107 563 -215 882 -15 46 25 -22 91 -152z m-998 -128 c112 -182 245
-458 302 -625 22 -63 22 -71 8 -81 -15 -11 -152 -30 -160 -23 -1 2 -10 55 -19
118 -20 133 -83 359 -156 556 -28 77 -54 149 -57 160 -10 35 19 -2 82 -105z
m-819 -288 c131 -222 264 -503 264 -561 0 -25 -26 -37 -99 -47 l-50 -6 -6 38
c-20 120 -142 546 -202 702 -18 46 25 -13 93 -126z m-751 -44 c156 -169 415
-550 415 -612 0 -20 -76 -43 -98 -30 -8 6 -42 53 -75 105 -93 147 -218 308
-332 427 -97 101 -103 110 -87 125 25 22 85 57 99 57 6 0 41 -33 78 -72z
m-150 -155 c153 -168 265 -324 334 -461 33 -66 33 -78 -2 -91 -78 -30 -81 -28
-138 56 -109 162 -237 307 -372 422 -42 36 -74 68 -71 73 8 13 136 108 145
108 4 0 51 -48 104 -107z m-39 -335 c74 -88 184 -246 184 -264 0 -7 -31 -23
-69 -35 l-69 -22 -129 133 c-101 105 -221 216 -343 318 -3 2 31 38 74 78 l80
75 104 -103 c57 -57 132 -137 168 -180z m-2696 148 c103 -83 344 -320 449
-441 101 -117 295 -364 290 -369 -2 -2 -74 61 -159 141 -296 276 -518 448
-704 544 -36 19 -66 41 -66 48 0 8 11 52 25 98 l26 84 32 -23 c18 -12 66 -49
107 -82z m2371 -213 c129 -125 269 -277 269 -292 0 -3 -30 -18 -67 -32 l-68
-27 -85 82 c-64 62 -250 210 -329 263 -6 4 120 143 129 143 4 0 72 -62 151
-137z m-2411 -67 c185 -122 358 -267 521 -433 111 -113 242 -263 235 -270 -2
-2 -35 19 -72 48 -206 155 -494 334 -714 442 -91 44 -167 82 -169 84 -4 3 17
170 26 210 l5 23 47 -27 c25 -15 80 -49 121 -77z m5189 -44 c-21 -42 -51 -122
-65 -177 -23 -87 -27 -124 -30 -280 -2 -142 -1 -165 6 -108 25 193 82 391 153
527 63 122 52 116 227 116 l150 0 -34 -47 c-98 -138 -162 -342 -171 -543 -2
-52 -2 -84 1 -70 35 175 177 529 251 628 25 33 26 34 87 27 119 -13 262 -35
328 -51 l67 -16 -67 -66 c-84 -84 -175 -195 -237 -290 -56 -87 -132 -245 -141
-293 -6 -27 12 -8 91 101 173 240 322 415 399 472 49 36 87 36 156 1 71 -37
95 -69 80 -108 -6 -16 -75 -94 -153 -174 -161 -165 -201 -211 -281 -329 -110
-162 -174 -317 -183 -442 l-5 -75 53 -80 c83 -126 124 -217 179 -400 29 -93
67 -203 86 -243 63 -138 168 -259 296 -345 57 -37 197 -108 240 -121 31 -10
21 -13 -102 -30 -305 -44 -731 -66 -812 -43 -27 7 -28 6 -28 -27 0 -69 -74
-285 -168 -486 -187 -404 -538 -791 -884 -974 l-68 -36 0 128 c0 70 -5 182
-11 249 -10 101 -10 125 1 138 8 9 93 70 189 136 380 257 571 456 679 709 10
23 11 22 11 -19 1 -23 -13 -84 -30 -135 -73 -218 -236 -455 -576 -837 -179
-201 -178 -201 -108 -149 232 171 435 384 588 615 199 302 251 552 134 639
-77 56 -156 62 -509 38 -216 -14 -471 -4 -683 27 -71 11 -195 27 -275 36 -267
30 -431 61 -628 121 -305 92 -518 205 -977 513 -126 85 -269 180 -316 212 -96
64 -98 67 -100 199 l-1 65 -15 -50 c-14 -45 -14 -54 1 -95 9 -25 16 -48 16
-51 0 -4 -29 9 -65 28 -101 54 -247 110 -363 140 -95 25 -124 28 -257 28 -135
-1 -158 -4 -235 -28 -47 -15 -92 -29 -100 -30 -9 -1 -29 24 -52 68 -104 196
-113 352 -26 480 49 72 56 74 125 38 32 -17 86 -41 121 -53 47 -17 62 -27 57
-38 -3 -9 -3 -36 1 -61 l7 -46 14 50 c8 28 18 54 22 58 5 4 43 5 85 1 l76 -7
1 -41 c0 -22 4 -50 8 -61 6 -15 10 -7 15 32 3 29 13 58 20 66 8 8 47 17 88 20
40 4 83 10 96 13 21 6 22 4 22 -62 0 -84 15 -116 22 -50 3 25 16 66 29 91 24
47 24 47 139 85 63 21 117 36 119 34 2 -2 -2 -23 -8 -48 -12 -49 -13 -124 -1
-171 l7 -30 7 30 c31 127 84 248 117 266 29 15 231 90 234 87 2 -2 -3 -34 -11
-73 -17 -87 -17 -190 0 -275 l12 -65 8 72 c15 146 78 358 117 390 12 9 251
103 264 103 1 0 -5 -22 -15 -48 -47 -123 -64 -329 -35 -417 13 -40 13 -40 14
-9 4 106 59 314 121 450 l28 62 126 42 c70 23 130 40 132 37 3 -3 -6 -40 -19
-84 -14 -43 -31 -105 -38 -138 -16 -75 -17 -303 -1 -330 10 -18 11 -16 12 18
0 85 68 329 136 491 26 62 41 86 61 95 41 19 264 73 271 66 15 -15 -63 -207
-116 -286 -70 -105 -89 -148 -102 -237 -14 -88 2 -160 55 -251 46 -78 50 -107
31 -208 -18 -98 -10 -159 32 -242 27 -55 140 -184 193 -221 l28 -21 -24 43
c-13 24 -36 84 -50 133 -43 144 -24 255 70 417 106 183 112 315 23 492 -38 76
-46 150 -24 236 24 95 64 176 91 188 33 15 275 65 282 59 3 -3 -6 -59 -20
-124 -35 -164 -51 -312 -44 -419 8 -112 25 -168 27 -84 2 161 65 452 132 612
18 41 26 49 67 62 76 25 173 47 178 42 3 -3 -11 -46 -31 -96 -54 -136 -94
-289 -107 -410 -13 -126 -7 -165 10 -67 17 96 62 221 140 382 96 200 111 222
160 230 86 14 107 -12 92 -120 -12 -85 -35 -134 -121 -266 -71 -108 -95 -178
-87 -260 10 -108 104 -240 194 -270 76 -25 161 39 226 171 29 59 32 73 32 160
0 91 -2 98 -37 163 -45 80 -56 147 -38 232 31 150 87 216 197 234 107 18 114
18 190 20 l72 1 -40 -78z m-2988 -46 c129 -105 247 -222 234 -235 -6 -5 -31
-18 -57 -29 l-48 -21 -27 23 c-47 39 -139 95 -239 144 l-94 47 52 78 c29 42
58 77 64 77 5 0 57 -38 115 -84z m-2198 -237 c276 -150 561 -345 672 -458 27
-28 47 -51 44 -51 -3 0 -34 14 -70 31 -139 68 -444 178 -699 253 -113 33 -115
34 -127 70 -7 20 -16 86 -19 147 l-7 111 37 -16 c20 -8 96 -48 169 -87z m2019
48 c81 -44 198 -125 198 -137 0 -3 -22 -17 -48 -29 l-49 -23 -40 20 c-45 23
-148 52 -186 52 -14 0 -28 4 -32 9 -8 13 55 151 69 151 6 0 46 -19 88 -43z
m4863 -12 c126 -32 357 -167 363 -211 2 -16 -10 -31 -47 -58 -161 -118 -239
-282 -228 -481 9 -161 56 -265 166 -367 213 -197 558 -194 788 8 111 96 173
232 173 379 l0 82 35 -32 c46 -44 104 -71 229 -106 132 -36 216 -73 216 -93 0
-23 -97 -95 -224 -167 -205 -117 -483 -363 -521 -462 -63 -166 126 -254 329
-154 41 21 113 71 166 117 166 142 250 168 439 135 55 -10 101 -22 101 -27 0
-17 -138 -109 -250 -167 -133 -69 -408 -188 -629 -273 -292 -112 -535 -175
-760 -199 -365 -38 -733 102 -906 346 -62 88 -87 143 -155 341 -34 98 -91 241
-128 318 -80 170 -87 213 -49 323 97 282 469 669 722 749 54 17 100 17 170 -1z
m769 -320 c199 -52 335 -262 311 -481 -18 -168 -149 -308 -327 -349 -85 -19
-129 -19 -203 0 -88 23 -140 51 -205 112 -104 96 -146 198 -138 337 7 118 37
187 112 261 117 116 288 162 450 120z m-7564 -80 c261 -89 377 -134 482 -186
84 -42 109 -65 62 -55 -104 21 -417 58 -602 72 l-93 6 -15 37 c-34 82 -73 201
-65 201 5 0 109 -34 231 -75z m250 -295 c218 -26 355 -48 347 -56 -20 -20
-256 -46 -641 -69 -104 -7 -109 -6 -101 11 4 11 10 51 12 89 l5 70 142 -17
c77 -9 184 -22 236 -28z m293 -200 c-84 -38 -482 -179 -640 -228 -192 -59
-184 -65 -121 97 l42 109 110 6 c61 4 192 11 291 17 99 6 185 12 190 14 6 2
46 3 90 4 l80 0 -42 -19z m37 -117 c-109 -73 -285 -174 -468 -266 -205 -104
-422 -201 -430 -192 -11 10 20 176 37 194 9 10 48 26 86 36 94 24 422 131 625
205 195 70 227 75 150 23z m8156 27 c14 -6 37 -19 51 -30 l24 -19 -38 -24
c-21 -13 -108 -61 -193 -107 -209 -111 -314 -185 -443 -310 -116 -113 -154
-139 -203 -140 -39 0 -84 34 -84 64 0 32 49 103 111 162 119 111 270 209 524
338 154 78 192 88 251 66z m-8151 -172 c-95 -86 -244 -209 -374 -307 -175
-132 -514 -351 -526 -340 -1 2 -6 57 -10 121 -7 110 -6 118 11 123 147 45 552
236 809 383 77 43 142 78 144 76 2 -2 -23 -27 -54 -56z m95 -87 c-16 -32 -189
-218 -306 -331 -178 -172 -378 -341 -549 -463 l-79 -57 -17 73 c-33 144 -38
127 49 172 193 99 397 237 722 489 96 74 179 135 183 136 4 0 3 -9 -3 -19z
m1210 -176 c0 -8 -19 -29 -42 -45 -54 -40 -212 -130 -226 -130 -15 0 -37 74
-28 95 18 47 296 123 296 80z m137 -91 c8 -20 -27 -56 -108 -109 -62 -41 -226
-135 -236 -135 -6 0 -43 82 -43 96 0 6 26 21 58 33 31 11 111 45 177 75 133
60 143 63 152 40z m128 -95 c11 -17 -39 -82 -122 -157 -95 -86 -233 -192 -251
-192 -11 0 -72 116 -72 137 0 5 56 34 123 66 68 32 159 80 203 107 80 49 108
58 119 39z m125 -84 c9 -11 7 -24 -14 -62 -55 -100 -351 -424 -374 -409 -18
11 -83 139 -75 146 4 4 61 42 126 84 69 46 155 113 210 166 50 49 97 89 103
90 6 0 17 -7 24 -15z m124 -71 c22 -22 20 -36 -13 -102 -68 -134 -229 -350
-344 -460 l-45 -44 -41 75 c-22 41 -41 78 -41 83 1 5 22 22 47 39 136 85 274
223 366 363 23 34 44 62 48 62 4 0 15 -7 23 -16z m139 -106 c8 -12 7 -29 -3
-60 -24 -73 -152 -318 -221 -423 -73 -110 -176 -245 -187 -245 -9 0 -108 187
-102 192 205 159 328 297 432 486 41 74 59 85 81 50z m127 -73 c16 -8 32 -24
35 -35 23 -73 -179 -450 -355 -665 -63 -77 -127 -141 -134 -134 -5 5 -66 135
-66 140 0 3 35 40 78 84 142 146 247 299 348 509 31 64 58 116 60 116 3 0 18
-7 34 -15z m174 -90 c36 -36 28 -92 -29 -205 -55 -108 -132 -209 -249 -325
-96 -96 -236 -205 -262 -205 -5 0 28 37 72 83 102 104 146 158 224 277 60 91
147 258 182 348 17 44 36 52 62 27z m2374 -314 c-7 -21 -151 -125 -268 -195
-128 -76 -443 -247 -447 -242 -8 7 42 140 69 185 26 42 46 62 93 88 83 45 203
88 380 133 162 42 178 45 173 31z m56 -73 c-99 -158 -274 -337 -579 -590 -184
-153 -201 -165 -208 -145 -14 36 -4 282 12 301 8 10 89 55 181 101 91 46 219
116 285 156 118 71 288 192 315 225 26 30 21 -4 -6 -48z m301 -348 c-45 -171
-172 -445 -289 -625 l-71 -110 -3 49 c-5 72 17 121 121 279 94 141 168 274
220 395 14 34 28 62 31 62 2 0 -2 -23 -9 -50z"/>
<path d="M5010 5350 c-179 -22 -305 -59 -345 -100 -81 -84 -25 -238 222 -613
204 -310 384 -485 552 -537 156 -49 412 -1 681 126 104 49 479 256 479 264 0
3 -17 17 -39 32 -56 39 -84 98 -83 173 1 99 57 214 125 255 l30 18 -114 55
c-288 142 -656 256 -998 312 -115 19 -407 27 -510 15z m321 -120 c144 -14 262
-35 409 -72 295 -73 630 -213 630 -264 0 -23 -36 -17 -287 45 -269 66 -468
104 -658 125 -139 16 -433 31 -425 23 3 -3 178 -39 390 -82 488 -97 917 -205
935 -235 8 -13 5 -13 -180 10 -309 40 -607 61 -905 66 -187 3 -287 1 -274 -5
21 -9 334 -51 534 -71 549 -55 820 -95 820 -120 0 -4 -127 -10 -282 -14 -354
-9 -623 -22 -800 -41 -75 -8 -144 -15 -152 -15 -44 0 -332 450 -352 548 -8 40
17 57 116 77 164 34 314 41 481 25z m959 -681 c0 -4 -48 -19 -107 -33 -172
-40 -844 -176 -870 -176 -28 0 -111 74 -173 155 -22 28 -40 54 -40 56 0 2 268
4 595 5 327 0 595 -3 595 -7z m50 -70 c-49 -42 -314 -171 -438 -213 -134 -46
-260 -69 -342 -64 -68 5 -158 38 -184 67 -15 17 -11 19 71 30 263 36 652 121
843 184 41 14 77 25 80 26 3 0 -11 -13 -30 -30z"/>
<path d="M1829 5305 c381 -181 1666 -224 2121 -70 25 8 34 13 20 10 -154 -30
-764 -40 -1060 -17 -91 7 -340 26 -555 42 -375 29 -519 43 -560 55 -11 3 4 -6
34 -20z"/>
<path d="M3055 4941 c-22 -75 -17 -137 20 -219 15 -34 29 -61 31 -59 2 2 -6
41 -17 87 -17 66 -20 103 -16 167 2 46 4 83 2 83 -1 0 -10 -27 -20 -59z"/>
<path d="M3342 4902 c-17 -74 -15 -188 4 -253 15 -50 94 -203 101 -195 2 2 -6
25 -17 52 -35 80 -62 211 -69 334 l-7 115 -12 -53z"/>
<path d="M3681 4835 c-7 -27 -16 -88 -18 -135 -7 -106 12 -186 68 -289 57
-105 107 -167 60 -73 -20 40 -53 145 -72 227 -6 28 -14 111 -18 185 l-6 135
-14 -50z"/>
<path d="M4037 4762 c-42 -241 6 -399 178 -587 l37 -40 -22 35 c-98 159 -165
359 -178 535 -7 88 -8 95 -15 57z"/>
<path d="M4413 4378 c11 -131 92 -256 212 -326 32 -20 31 -17 -23 47 -61 73
-139 212 -167 299 -9 28 -19 52 -22 52 -3 0 -3 -33 0 -72z"/>
<path d="M7473 5732 c-114 -91 -182 -188 -228 -325 -103 -308 -54 -688 120
-933 138 -193 404 -307 651 -279 l69 8 -78 13 c-310 50 -511 198 -608 448 -56
145 -72 242 -73 431 -1 179 12 270 56 400 28 80 90 204 123 243 35 42 27 40
-32 -6z"/>
<path d="M8263 5630 c-76 -16 -149 -62 -186 -119 -95 -143 -50 -330 100 -418
68 -39 172 -44 245 -11 115 53 178 136 186 248 4 57 1 76 -20 122 -34 73 -79
122 -141 152 -61 29 -125 38 -184 26z m202 -146 c19 -8 45 -55 45 -84 0 -29
-44 -70 -75 -70 -14 0 -37 11 -50 25 -60 59 2 159 80 129z"/>
</g>
</svg>
